<?xml version="1.0" encoding="utf-8"?>
<!-- Generator: Adobe Illustrator 27.5.0, SVG Export Plug-In . SVG Version: 6.00 Build 0)  -->
<svg version="1.1" xmlns="http://www.w3.org/2000/svg" xmlns:xlink="http://www.w3.org/1999/xlink" x="0px" y="0px"
	 viewBox="0 0 500 500" style="enable-background:new 0 0 500 500;" xml:space="preserve">
<g id="Background">
	<rect style="fill:transparent;" width="500" height="500"/>
</g>
<g id="Objects">
	<g>
		<g>
			<g id="Computer_1_">
				<g>
					<g>
						<path style="fill:#42444F;" d="M252.712,325.746v30.579h-41.641v-30.579h14.731v14.698c0,3.354,2.736,6.101,6.09,6.101
							c3.354,0,6.101-2.746,6.101-6.101v-14.698H252.712z"/>
						<polygon style="fill:#2C2C30;" points="211.071,325.746 225.801,325.746 225.801,331.944 211.071,330.251 						"/>
						<polygon style="fill:#2C2C30;" points="252.712,325.746 252.712,335.027 237.992,333.334 237.992,325.746 						"/>
						<rect x="182.086" y="355.987" style="fill:#35363B;" width="99.617" height="4.15"/>
					</g>
					<path style="fill:#35363B;" d="M373.276,181.139v136.739c0,6.225-5.052,11.288-11.288,11.288H101.8
						c-6.236,0-11.287-5.062-11.287-11.288V181.139c0-6.225,5.052-11.277,11.287-11.277h260.189
						C368.225,169.862,373.276,174.913,373.276,181.139z"/>
					<rect x="90.51" y="184.051" style="fill:#42444F;" width="282.77" height="128.429"/>
					<path style="fill:#42444F;" d="M235.88,320.732c0,2.201-1.784,3.985-3.985,3.985s-3.985-1.784-3.985-3.985
						c0-2.201,1.784-3.985,3.985-3.985S235.88,318.531,235.88,320.732z"/>
				</g>
			</g>
			<path style="opacity:0.55;fill:#35363B;" d="M147.055,169.862v41.021c0,1.614-0.398,3.176-1.153,4.549
				c-0.818,1.53-2.065,2.84-3.626,3.742l-42.373,24.461c-2.893,1.677-6.456,1.708-9.391,0.094v-62.589
				c0-6.225,5.052-11.277,11.287-11.277H147.055z"/>
			<path style="fill:#E6EAF0;" d="M467.044,375.5h-81.245c-1.469,0-2.671-1.202-2.671-2.672l0,0c0-1.469,1.202-2.671,2.671-2.671
				h81.245c1.469,0,2.672,1.202,2.672,2.671l0,0C469.715,374.298,468.513,375.5,467.044,375.5z"/>
			<g>
				<g>
					<g>
						
							<rect x="434.439" y="276.631" transform="matrix(0.9915 -0.1301 0.1301 0.9915 -38.4511 60.1296)" style="fill:#42444F;" width="13.167" height="95.496"/>
						<path style="fill:#E6EAF0;" d="M437.811,282.914c0.159,1.211-0.694,2.321-1.904,2.48c-1.211,0.159-2.321-0.694-2.48-1.904
							c-0.159-1.211,0.694-2.321,1.904-2.48C436.542,280.851,437.652,281.703,437.811,282.914z"/>
						<path style="fill:#E6EAF0;" d="M438.735,289.953c0.159,1.211-0.694,2.321-1.904,2.48c-1.211,0.159-2.321-0.694-2.48-1.904
							c-0.159-1.211,0.694-2.321,1.904-2.48C437.466,287.889,438.576,288.742,438.735,289.953z"/>
						<g>
							
								<rect x="439.937" y="350.49" transform="matrix(0.9915 -0.1301 0.1301 0.9915 -41.9237 60.8222)" style="fill:#E6EAF0;" width="9.229" height="1.584"/>
							
								<rect x="440.335" y="353.522" transform="matrix(0.9915 -0.1301 0.1301 0.9915 -42.3154 60.9008)" style="fill:#E6EAF0;" width="9.229" height="1.584"/>
							
								<rect x="440.733" y="356.554" transform="matrix(0.9915 -0.1301 0.1301 0.9915 -42.7033 60.9731)" style="fill:#E6EAF0;" width="9.229" height="1.584"/>
							
								<rect x="441.131" y="359.586" transform="matrix(0.9915 -0.1301 0.1301 0.9915 -43.0944 61.0506)" style="fill:#E6EAF0;" width="9.229" height="1.584"/>
						</g>
					</g>
					<g>
						
							<rect x="411.678" y="259.884" transform="matrix(0.9987 -0.0501 0.0501 0.9987 -15.3021 21.4807)" style="fill:#42444F;" width="18.491" height="112.318"/>
						<circle style="fill:#E6EAF0;" cx="420.71" cy="311.8" r="4.601"/>
						<g>
							
								<rect x="413.772" y="292.507" transform="matrix(0.9987 -0.0501 0.0501 0.9987 -14.163 21.3934)" style="fill:#E6EAF0;" width="12.019" height="1.569"/>
							
								<rect x="413.926" y="295.57" transform="matrix(0.9987 -0.0501 0.0501 0.9987 -14.3162 21.4049)" style="fill:#E6EAF0;" width="12.019" height="1.569"/>
						</g>
						<g>
							
								<rect x="415.859" y="334.102" transform="matrix(0.9987 -0.0501 0.0501 0.9987 -16.2435 21.5499)" style="fill:#E6EAF0;" width="12.019" height="1.569"/>
							
								<rect x="416.012" y="337.164" transform="matrix(0.9987 -0.0501 0.0501 0.9987 -16.3994 21.5651)" style="fill:#E6EAF0;" width="12.019" height="1.569"/>
						</g>
					</g>
					<g>
						<rect x="387.941" y="268.432" style="fill:#34909D;" width="21.224" height="104.162"/>
						<circle style="fill:#E6EAF0;" cx="398.553" cy="283.081" r="6.458"/>
						<g>
							<rect x="391.814" y="336.91" style="fill:#E6EAF0;" width="13.478" height="1.569"/>
							<rect x="391.814" y="339.976" style="fill:#E6EAF0;" width="13.478" height="1.569"/>
						</g>
						<g>
							<rect x="391.814" y="360.371" style="fill:#E6EAF0;" width="13.478" height="1.569"/>
							<rect x="391.814" y="363.438" style="fill:#E6EAF0;" width="13.478" height="1.569"/>
						</g>
					</g>
				</g>
				<g>
					
						<rect x="451.29" y="297.461" transform="matrix(0.9832 -0.1828 0.1828 0.9832 -53.5484 88.9221)" style="fill:#E6EAF0;" width="8.816" height="75.084"/>
					
						<rect x="454.655" y="316.503" transform="matrix(0.9832 -0.1828 0.1828 0.9832 -54.1088 89.0349)" style="fill:#6F7082;" width="2.732" height="43.184"/>
				</g>
			</g>
			<g id="Document_1_">
				<g id="Artwork_6_3_">
					<g>
						<g>
							<path style="fill:#35363B;" d="M454.423,211.911h-46.064v-78.382h34.248c4.615,4.615,7.202,7.202,11.816,11.817V211.911z"/>
							<g>
								<rect x="414.943" y="143.685" style="fill:#555866;" width="32.947" height="2.255"/>
								<rect x="414.943" y="149.288" style="fill:#555866;" width="32.947" height="2.255"/>
								<rect x="414.943" y="154.892" style="fill:#555866;" width="32.947" height="2.255"/>
								<rect x="414.943" y="160.495" style="fill:#555866;" width="32.947" height="2.255"/>
								<rect x="414.943" y="166.099" style="fill:#555866;" width="32.947" height="2.255"/>
								<rect x="414.943" y="171.702" style="fill:#42444F;" width="19.393" height="2.255"/>
							</g>
							<g>
								<rect x="414.943" y="182.976" style="fill:#555866;" width="32.947" height="2.255"/>
								<rect x="414.943" y="188.579" style="fill:#555866;" width="32.947" height="2.255"/>
								<rect x="414.943" y="194.183" style="fill:#555866;" width="32.947" height="2.255"/>
								<rect x="414.943" y="199.786" style="fill:#42444F;" width="19.393" height="2.255"/>
							</g>
							<path style="fill:#27282B;" d="M454.423,145.345h-11.816v-11.817l0,0C447.221,138.144,449.808,140.731,454.423,145.345
								L454.423,145.345z"/>
						</g>
						<g>
							<path style="fill:#E6EAF0;" d="M439.587,225.478h-46.064v-78.382h34.248c4.615,4.615,7.202,7.202,11.816,11.817V225.478z"/>
							<g>
								<rect x="400.107" y="157.252" style="fill:#42444F;" width="32.947" height="2.255"/>
								<rect x="400.107" y="162.855" style="fill:#42444F;" width="32.947" height="2.255"/>
								<rect x="400.107" y="168.459" style="fill:#42444F;" width="32.947" height="2.255"/>
								<rect x="400.107" y="174.062" style="fill:#42444F;" width="32.947" height="2.255"/>
								<rect x="400.107" y="179.666" style="fill:#42444F;" width="32.947" height="2.255"/>
								<rect x="400.107" y="185.269" style="fill:#42444F;" width="19.393" height="2.255"/>
							</g>
							<g>
								<rect x="400.107" y="196.543" style="fill:#42444F;" width="32.947" height="2.255"/>
								<rect x="400.107" y="202.147" style="fill:#42444F;" width="32.947" height="2.255"/>
								<rect x="400.107" y="207.75" style="fill:#42444F;" width="32.947" height="2.255"/>
								<rect x="400.107" y="213.354" style="fill:#42444F;" width="19.393" height="2.255"/>
							</g>
							<path style="fill:#C5CBD6;" d="M439.587,158.913h-11.816v-11.817l0,0C432.385,151.711,434.972,154.298,439.587,158.913
								L439.587,158.913z"/>
						</g>
					</g>
				</g>
			</g>
			<g id="cloud_7_">
				<g>
					<path style="fill:#CED0D6;" d="M310.866,132.079c0,6.541-5.302,11.843-11.843,11.843H173.38
						c-11.298,0-20.457-9.159-20.457-20.457c0-11.295,9.159-20.453,20.457-20.453c2.641,0,5.168,0.501,7.489,1.413
						c-0.004-0.134-0.008-0.273-0.008-0.407c0-14.697,7.947-27.539,19.778-34.459c5.906-3.462,12.786-5.444,20.125-5.444
						c19.49,0,35.715,13.975,39.204,32.45c3.703-2.12,7.994-3.332,12.566-3.332c13.995,0,25.34,11.35,25.34,25.344
						c0,0.576-0.02,1.153-0.059,1.721c0.399-0.044,0.801-0.063,1.208-0.063C305.565,120.236,310.866,125.537,310.866,132.079z"/>
					<path style="fill:#E6EAF0;" d="M249.752,143.922H173.38c-11.298,0-20.457-9.159-20.457-20.457
						c0-11.295,9.159-20.453,20.457-20.453c2.641,0,5.168,0.501,7.489,1.413c-0.004-0.134-0.008-0.273-0.008-0.407
						c0-14.697,7.947-27.539,19.778-34.459c6.407-0.32,12.854,0.28,18.826,2.534c7.753,2.925,14.618,8.946,17.117,16.841
						c2.503,7.899-0.174,17.548-7.205,21.933c4.287-0.596,8.436,0.087,12.127,2.337c3.695,2.25,6.186,6.81,5.069,10.986
						c-0.695,2.594-2.641,4.706-4.899,6.158c-2.187,1.409-4.674,2.266-7.137,3.103c1.137-0.367,1.678-0.371,2.973-0.422
						c1.382-0.059,2.842,0.328,3.786,1.338c0.948,1.007,1.196,2.708,0.332,3.782c1.532-1.512,3.857-0.268,5.499,1.125
						C248.536,140.467,249.385,142.122,249.752,143.922z"/>
				</g>
			</g>
			<g>
				<defs>
					<rect id="SVGID_1_" x="128.226" y="184.051" width="190.869" height="128.429"/>
				</defs>
				<clipPath id="SVGID_00000011738900946769944430000016950551338470418572_">
					<use xlink:href="#SVGID_1_"  style="overflow:visible;"/>
				</clipPath>
				<g id="Website_3_" style="clip-path:url(#SVGID_00000011738900946769944430000016950551338470418572_);">
					<g>
						<path style="fill:#35363B;" d="M305.027,203.546v190.197c0,3.005-2.436,5.44-5.44,5.44H172.065c-3.005,0-5.44-2.436-5.44-5.44
							V203.546c0-3.005,2.436-5.44,5.44-5.44h127.521C302.591,198.106,305.027,200.542,305.027,203.546z"/>
						<path style="fill:#E6EAF0;" d="M299.2,199.064V389.26c0,3.005-2.436,5.44-5.44,5.44H166.238c-3.005,0-5.441-2.436-5.441-5.44
							V199.064c0-3.005,2.436-5.44,5.441-5.44h127.521C296.764,193.623,299.2,196.059,299.2,199.064z"/>
						<path style="fill:#DBDFE6;" d="M299.2,199.064v4.441H160.798v-4.441c0-3.005,2.436-5.44,5.441-5.44h127.521
							C296.764,193.623,299.2,196.059,299.2,199.064z"/>
						<path style="fill:#DBDFE6;" d="M299.2,385.721v3.539c0,3.005-2.436,5.44-5.44,5.44H166.238c-3.005,0-5.441-2.436-5.441-5.44
							v-3.539H299.2z"/>
						<g>
							<circle style="fill:#34909D;" cx="292.163" cy="198.961" r="1.643"/>
							<circle style="fill:#E76700;" cx="286.418" cy="198.961" r="1.643"/>
							<circle style="fill:#BA0034;" cx="280.673" cy="198.961" r="1.643"/>
						</g>
						<rect x="162.908" y="205.537" style="fill:#6F7082;" width="134.182" height="53.719"/>
						<rect x="166.766" y="264.807" style="fill:#FFFFFF;" width="36.958" height="32.086"/>
						<rect x="207.279" y="264.807" style="fill:#FFFFFF;" width="86.527" height="2.438"/>
						<rect x="207.279" y="270.763" style="fill:#FFFFFF;" width="86.527" height="2.438"/>
						<rect x="207.279" y="276.719" style="fill:#FFFFFF;" width="86.527" height="2.438"/>
						<rect x="207.279" y="282.675" style="fill:#FFFFFF;" width="86.527" height="2.438"/>
						<g>
							<path style="fill:#34909D;" d="M291.103,296.893h-19.837c-1.487,0-2.703-1.216-2.703-2.703l0,0
								c0-1.487,1.216-2.703,2.703-2.703h19.837c1.487,0,2.703,1.216,2.703,2.703l0,0
								C293.806,295.677,292.59,296.893,291.103,296.893z"/>
							<path style="fill:#FFFFFF;" d="M285.645,295.409h-8.921c-0.673,0-1.219-0.546-1.219-1.219l0,0
								c0-0.673,0.546-1.219,1.219-1.219h8.921c0.673,0,1.219,0.546,1.219,1.219l0,0
								C286.864,294.863,286.318,295.409,285.645,295.409z"/>
						</g>
						<g>
							<g>
								<rect x="166.766" y="307.858" style="fill:#FFFFFF;" width="13.62" height="13.621"/>
								<rect x="166.766" y="322.857" style="fill:#FFFFFF;" width="13.62" height="1.398"/>
								<rect x="166.766" y="325.635" style="fill:#FFFFFF;" width="13.62" height="1.398"/>
								<rect x="166.766" y="328.413" style="fill:#FFFFFF;" width="9.038" height="1.398"/>
							</g>
							<g>
								<rect x="185.669" y="307.858" style="fill:#FFFFFF;" width="13.621" height="13.621"/>
								<rect x="185.669" y="322.857" style="fill:#FFFFFF;" width="13.621" height="1.398"/>
								<rect x="185.669" y="325.635" style="fill:#FFFFFF;" width="13.621" height="1.398"/>
								<rect x="185.669" y="328.413" style="fill:#FFFFFF;" width="9.038" height="1.398"/>
							</g>
							<g>
								<rect x="204.572" y="307.858" style="fill:#FFFFFF;" width="13.62" height="13.621"/>
								<rect x="204.572" y="322.857" style="fill:#FFFFFF;" width="13.62" height="1.398"/>
								<rect x="204.572" y="325.635" style="fill:#FFFFFF;" width="13.62" height="1.398"/>
								<rect x="204.572" y="328.413" style="fill:#FFFFFF;" width="9.038" height="1.398"/>
							</g>
							<g>
								<rect x="223.476" y="307.858" style="fill:#FFFFFF;" width="13.621" height="13.621"/>
								<rect x="223.476" y="322.857" style="fill:#FFFFFF;" width="13.621" height="1.398"/>
								<rect x="223.476" y="325.635" style="fill:#FFFFFF;" width="13.621" height="1.398"/>
								<rect x="223.476" y="328.413" style="fill:#FFFFFF;" width="9.038" height="1.398"/>
							</g>
							<g>
								<rect x="242.379" y="307.858" style="fill:#FFFFFF;" width="13.62" height="13.621"/>
								<rect x="242.379" y="322.857" style="fill:#FFFFFF;" width="13.62" height="1.398"/>
								<rect x="242.379" y="325.635" style="fill:#FFFFFF;" width="13.62" height="1.398"/>
								<rect x="242.379" y="328.413" style="fill:#FFFFFF;" width="9.038" height="1.398"/>
							</g>
							<g>
								<rect x="261.282" y="307.858" style="fill:#FFFFFF;" width="13.621" height="13.621"/>
								<rect x="261.282" y="322.857" style="fill:#FFFFFF;" width="13.621" height="1.398"/>
								<rect x="261.282" y="325.635" style="fill:#FFFFFF;" width="13.621" height="1.398"/>
								<rect x="261.282" y="328.413" style="fill:#FFFFFF;" width="9.038" height="1.398"/>
							</g>
							<g>
								<rect x="280.185" y="307.858" style="fill:#FFFFFF;" width="13.621" height="13.621"/>
								<rect x="280.185" y="322.857" style="fill:#FFFFFF;" width="13.621" height="1.398"/>
								<rect x="280.185" y="325.635" style="fill:#FFFFFF;" width="13.621" height="1.398"/>
								<rect x="280.185" y="328.413" style="fill:#FFFFFF;" width="9.038" height="1.398"/>
							</g>
						</g>
						<g>
							<g>
								<polygon style="fill:#FFFFFF;" points="166.766,233.149 171.976,238.358 171.976,227.939 								"/>
							</g>
							<polygon style="fill:#FFFFFF;" points="288.596,227.939 288.596,238.358 293.806,233.149 							"/>
						</g>
						<g>
							<path style="fill:#FFFFFF;" d="M222.742,257.227c0,0.523-0.424,0.947-0.947,0.947s-0.947-0.424-0.947-0.947
								c0-0.523,0.424-0.947,0.947-0.947S222.742,256.704,222.742,257.227z"/>
							<circle style="fill:#42444F;" cx="225.898" cy="257.227" r="0.947"/>
							<path style="fill:#FFFFFF;" d="M230.946,257.227c0,0.523-0.424,0.947-0.947,0.947c-0.523,0-0.947-0.424-0.947-0.947
								c0-0.523,0.424-0.947,0.947-0.947C230.522,256.28,230.946,256.704,230.946,257.227z"/>
							<circle style="fill:#FFFFFF;" cx="234.101" cy="257.227" r="0.947"/>
							<path style="fill:#FFFFFF;" d="M239.15,257.227c0,0.523-0.424,0.947-0.947,0.947s-0.947-0.424-0.947-0.947
								c0-0.523,0.424-0.947,0.947-0.947S239.15,256.704,239.15,257.227z"/>
						</g>
						
							<line style="fill:none;stroke:#FFFFFF;stroke-width:1.843;stroke-miterlimit:10;" x1="166.766" y1="336.356" x2="293.806" y2="336.356"/>
						
							<line style="fill:none;stroke:#FFFFFF;stroke-width:1.843;stroke-miterlimit:10;" x1="166.766" y1="302.375" x2="293.806" y2="302.375"/>
						<g>
							<rect x="166.766" y="343.44" style="fill:#FFFFFF;" width="58.185" height="13.696"/>
							<rect x="234.101" y="343.44" style="fill:#FFFFFF;" width="59.705" height="13.696"/>
						</g>
						<g>
							<rect x="166.766" y="360.659" style="fill:#FFFFFF;" width="58.185" height="13.696"/>
							<rect x="234.101" y="360.659" style="fill:#FFFFFF;" width="59.705" height="13.696"/>
						</g>
					</g>
				</g>
			</g>
			<g>
				<g>
					<path style="fill:#35363B;" d="M139.058,154.822v48.923c0,1.614-0.398,3.176-1.153,4.549c-0.817,1.53-2.065,2.84-3.626,3.742
						l-42.373,24.462c-2.956,1.708-6.603,1.708-9.569,0l-42.362-24.462c-1.562-0.901-2.809-2.211-3.637-3.742
						c-0.744-1.373-1.153-2.934-1.153-4.549v-48.923c0-3.417,1.824-6.582,4.79-8.29l42.362-24.461c2.966-1.708,6.613-1.708,9.569,0
						l42.373,24.461C137.235,148.24,139.058,151.406,139.058,154.822z"/>
					<g id="Ribbon_2_">
						<path style="fill:#202124;" d="M139.058,182.354v21.391c0,1.614-0.398,3.176-1.153,4.549H36.339
							c-0.744-1.373-1.153-2.934-1.153-4.549v-21.391H139.058z"/>
					</g>
					<g id="Ribbon_1_">
						<polygon style="fill:#34909D;" points="143.728,180.014 30.285,180.014 33.764,192.984 30.285,205.955 143.728,205.955 
							140.422,192.984 						"/>
					</g>
					
						<text transform="matrix(1 0 0 1 50.8872 202.8877)" style="fill:#E6EAF0; font-family:'Montserrat-Black'; font-size:28.9101px; letter-spacing:1;">cms</text>
				</g>
				<g id="gear_16_">
					<g>
						<g id="gear_21_">
							<path style="fill:#202124;" d="M94.254,156.616c0.159-0.83,0.24-1.686,0.24-2.563c0-0.876-0.081-1.733-0.24-2.565h-4.455
								c-0.203-0.715-0.485-1.395-0.84-2.029l3.148-3.148c-0.969-1.425-2.201-2.656-3.625-3.628l-3.151,3.15
								c-0.634-0.355-1.315-0.639-2.029-0.84v-4.458c-0.83-0.159-1.687-0.24-2.563-0.24c-0.876,0-1.733,0.081-2.565,0.24v4.458
								c-0.715,0.201-1.393,0.485-2.029,0.84l-3.15-3.15c-1.425,0.972-2.656,2.203-3.623,3.628l3.148,3.148
								c-0.355,0.634-0.639,1.315-0.84,2.029h-4.455c-0.159,0.832-0.24,1.689-0.24,2.565c0,0.876,0.081,1.733,0.24,2.563h4.455
								c0.201,0.715,0.485,1.395,0.84,2.029l-3.148,3.148c0.967,1.425,2.198,2.656,3.623,3.628l3.15-3.151
								c0.636,0.355,1.315,0.639,2.029,0.842v4.455c0.832,0.159,1.689,0.24,2.565,0.24c0.876,0,1.733-0.081,2.563-0.24v-4.455
								c0.715-0.203,1.395-0.487,2.029-0.842l3.151,3.151c1.425-0.969,2.656-2.201,3.625-3.625l-3.148-3.15
								c0.355-0.634,0.637-1.314,0.84-2.029H94.254z M80.739,156.827c-1.533,0-2.775-1.243-2.775-2.775
								c0-1.533,1.243-2.775,2.775-2.775c1.533,0,2.775,1.243,2.775,2.775C83.515,155.585,82.272,156.827,80.739,156.827z"/>
						</g>
						<g id="gear_17_">
							<path style="fill:#202124;" d="M107.161,166.623c0.097-0.504,0.146-1.025,0.146-1.557c0-0.532-0.049-1.053-0.146-1.559
								h-2.707c-0.123-0.434-0.294-0.848-0.51-1.233l1.913-1.913c-0.589-0.866-1.337-1.614-2.203-2.204l-1.914,1.914
								c-0.385-0.216-0.799-0.388-1.233-0.51v-2.708c-0.504-0.097-1.025-0.146-1.557-0.146c-0.532,0-1.053,0.049-1.559,0.146v2.708
								c-0.434,0.122-0.846,0.295-1.233,0.51l-1.914-1.914c-0.866,0.59-1.614,1.339-2.201,2.204l1.913,1.913
								c-0.216,0.385-0.388,0.799-0.51,1.233h-2.707c-0.097,0.506-0.146,1.026-0.146,1.559c0,0.533,0.049,1.053,0.146,1.557h2.707
								c0.122,0.434,0.295,0.848,0.51,1.233l-1.913,1.913c0.588,0.866,1.336,1.614,2.201,2.204l1.914-1.914
								c0.387,0.216,0.799,0.388,1.233,0.512v2.707c0.506,0.097,1.026,0.146,1.559,0.146c0.533,0,1.053-0.049,1.557-0.146v-2.707
								c0.434-0.124,0.848-0.296,1.233-0.512l1.914,1.914c0.866-0.589,1.614-1.337,2.203-2.203l-1.913-1.914
								c0.216-0.385,0.387-0.799,0.51-1.233H107.161z M98.949,166.751c-0.931,0-1.686-0.755-1.686-1.686
								c0-0.931,0.755-1.686,1.686-1.686c0.931,0,1.686,0.755,1.686,1.686C100.635,165.996,99.88,166.751,98.949,166.751z"/>
						</g>
					</g>
				</g>
				<g id="gear_18_">
					<g>
						<g id="gear_20_">
							<path style="fill:#FFFFFF;" d="M94.254,155.568c0.159-0.83,0.24-1.687,0.24-2.563c0-0.876-0.081-1.733-0.24-2.565h-4.455
								c-0.203-0.715-0.485-1.395-0.84-2.029l3.148-3.148c-0.969-1.425-2.201-2.656-3.625-3.628l-3.151,3.15
								c-0.634-0.355-1.315-0.639-2.029-0.84v-4.458c-0.83-0.159-1.687-0.24-2.563-0.24c-0.876,0-1.733,0.081-2.565,0.24v4.458
								c-0.715,0.201-1.393,0.485-2.029,0.84l-3.15-3.15c-1.425,0.972-2.656,2.203-3.623,3.628l3.148,3.148
								c-0.355,0.634-0.639,1.315-0.84,2.029h-4.455c-0.159,0.832-0.24,1.689-0.24,2.565c0,0.876,0.081,1.733,0.24,2.563h4.455
								c0.201,0.715,0.485,1.395,0.84,2.029l-3.148,3.148c0.967,1.425,2.198,2.656,3.623,3.628l3.15-3.15
								c0.636,0.355,1.315,0.639,2.029,0.842v4.455c0.832,0.159,1.689,0.24,2.565,0.24c0.876,0,1.733-0.081,2.563-0.24v-4.455
								c0.715-0.203,1.395-0.487,2.029-0.842l3.151,3.15c1.425-0.969,2.656-2.201,3.625-3.625l-3.148-3.15
								c0.355-0.634,0.637-1.314,0.84-2.029H94.254z M80.739,155.779c-1.533,0-2.775-1.243-2.775-2.775
								c0-1.533,1.243-2.775,2.775-2.775c1.533,0,2.775,1.243,2.775,2.775C83.515,154.537,82.272,155.779,80.739,155.779z"/>
						</g>
						<g id="gear_19_">
							<path style="fill:#FFFFFF;" d="M107.161,165.575c0.097-0.504,0.146-1.025,0.146-1.557s-0.049-1.053-0.146-1.559h-2.707
								c-0.123-0.434-0.294-0.848-0.51-1.233l1.913-1.913c-0.589-0.866-1.337-1.614-2.203-2.204l-1.914,1.914
								c-0.385-0.216-0.799-0.388-1.233-0.51v-2.709c-0.504-0.097-1.025-0.146-1.557-0.146c-0.532,0-1.053,0.049-1.559,0.146v2.709
								c-0.434,0.122-0.846,0.294-1.233,0.51l-1.914-1.914c-0.866,0.591-1.614,1.339-2.201,2.204l1.913,1.913
								c-0.216,0.385-0.388,0.799-0.51,1.233h-2.707c-0.097,0.506-0.146,1.026-0.146,1.559s0.049,1.053,0.146,1.557h2.707
								c0.122,0.434,0.295,0.848,0.51,1.233l-1.913,1.913c0.588,0.866,1.336,1.614,2.201,2.204l1.914-1.914
								c0.387,0.216,0.799,0.388,1.233,0.512v2.707c0.506,0.097,1.026,0.146,1.559,0.146c0.533,0,1.053-0.049,1.557-0.146v-2.707
								c0.434-0.124,0.848-0.296,1.233-0.512l1.914,1.914c0.866-0.589,1.614-1.337,2.203-2.203l-1.913-1.914
								c0.216-0.385,0.387-0.799,0.51-1.233H107.161z M98.949,165.703c-0.931,0-1.686-0.755-1.686-1.686
								c0-0.931,0.755-1.686,1.686-1.686c0.931,0,1.686,0.755,1.686,1.686C100.635,164.948,99.88,165.703,98.949,165.703z"/>
						</g>
					</g>
				</g>
			</g>
			<g id="chat_4_">
				<g>
					<path style="fill:#34909D;" d="M370.559,106.406h-17.957c-5.249,0-9.544,4.295-9.544,9.544c0,5.065,4,9.241,8.997,9.527
						l-5.9,7.016l11.121-6.999h13.282c5.249,0,9.544-4.295,9.544-9.544C380.103,110.701,375.808,106.406,370.559,106.406z"/>
					<path style="fill:#FFFFFF;" d="M353.159,112.867c-1.714,0-3.103,1.389-3.103,3.103c0,1.714,1.389,3.103,3.103,3.103
						c1.714,0,3.103-1.389,3.103-3.103C356.262,114.256,354.873,112.867,353.159,112.867z M361.581,112.867
						c-1.714,0-3.103,1.389-3.103,3.103c0,1.714,1.389,3.103,3.103,3.103c1.714,0,3.103-1.389,3.103-3.103
						C364.684,114.256,363.294,112.867,361.581,112.867z M370.002,112.867c-1.714,0-3.103,1.389-3.103,3.103
						c0,1.714,1.389,3.103,3.103,3.103c1.714,0,3.103-1.389,3.103-3.103C373.105,114.256,371.716,112.867,370.002,112.867z"/>
				</g>
			</g>
			
				<line style="fill:none;stroke:#6F7082;stroke-width:3.1442;stroke-linecap:round;stroke-miterlimit:10;stroke-dasharray:0,5.2403;" x1="235.378" y1="148.767" x2="235.378" y2="189.982"/>
			<g>
				<g>
					
						<line style="fill:none;stroke:#6F7082;stroke-width:1.1529;stroke-miterlimit:10;stroke-dasharray:2.0961,1.0481;" x1="419.742" y1="258.797" x2="419.742" y2="226.515"/>
					<g>
						<circle style="fill:#6F7082;" cx="419.742" cy="258.732" r="1.3"/>
					</g>
					<g>
						<path style="fill:#6F7082;" d="M421.042,226.58c0-0.718-0.582-1.3-1.3-1.3c-0.718,0-1.3,0.582-1.3,1.3
							c0,0.718,0.582,1.3,1.3,1.3C420.46,227.881,421.042,227.298,421.042,226.58z"/>
					</g>
				</g>
			</g>
			<g>
				<g>
					
						<line style="fill:none;stroke:#6F7082;stroke-width:1.1529;stroke-miterlimit:10;stroke-dasharray:2.0961,1.0481;" x1="406.976" y1="139.505" x2="309.409" y2="139.505"/>
					<g>
						<path style="fill:#6F7082;" d="M406.911,138.205c0.718,0,1.3,0.582,1.3,1.3c0,0.718-0.582,1.3-1.3,1.3
							c-0.718,0-1.3-0.582-1.3-1.3C405.61,138.787,406.193,138.205,406.911,138.205z"/>
					</g>
					<g>
						<path style="fill:#6F7082;" d="M309.474,138.205c-0.718,0-1.3,0.582-1.3,1.3c0,0.718,0.582,1.3,1.3,1.3
							c0.718,0,1.3-0.582,1.3-1.3C310.775,138.787,310.192,138.205,309.474,138.205z"/>
					</g>
				</g>
			</g>
			<g>
				<g>
					
						<line style="fill:none;stroke:#6F7082;stroke-width:1.1529;stroke-miterlimit:10;stroke-dasharray:2.0961,1.0481;" x1="75.183" y1="281.665" x2="75.183" y2="233.299"/>
					<g>
						<path style="fill:#6F7082;" d="M76.483,281.6c0,0.718-0.582,1.3-1.3,1.3c-0.718,0-1.3-0.582-1.3-1.3
							c0-0.718,0.582-1.3,1.3-1.3C75.901,280.3,76.483,280.883,76.483,281.6z"/>
					</g>
					<g>
						<path style="fill:#6F7082;" d="M76.483,233.364c0-0.718-0.582-1.3-1.3-1.3c-0.718,0-1.3,0.582-1.3,1.3
							c0,0.718,0.582,1.3,1.3,1.3C75.901,234.665,76.483,234.082,76.483,233.364z"/>
					</g>
				</g>
			</g>
			<g>
				<g>
					<path style="fill:none;stroke:#6F7082;stroke-width:1.1529;stroke-miterlimit:10;stroke-dasharray:2.0961,1.0481;" d="
						M90.421,220.124l22.791,22.791c2.343,2.343,5.52,3.659,8.834,3.659h37.438"/>
					<g>
						<circle style="fill:#6F7082;" cx="90.467" cy="220.17" r="1.3"/>
					</g>
					<g>
						<path style="fill:#6F7082;" d="M159.418,247.874c0.718,0,1.3-0.582,1.3-1.3c0-0.718-0.582-1.3-1.3-1.3
							c-0.718,0-1.3,0.582-1.3,1.3C158.118,247.292,158.7,247.874,159.418,247.874z"/>
					</g>
				</g>
			</g>
			<g>
				<g>
					<path style="fill:#42444F;" d="M341.85,419.986L341.85,419.986c-5.307,0-9.648-4.342-9.648-9.648v-14.656
						c0-5.306,4.342-9.648,9.648-9.648l0,0c5.307,0,9.648,4.342,9.648,9.648v14.656C351.498,415.644,347.156,419.986,341.85,419.986
						z"/>
					<path style="fill:#6F7082;" d="M341.85,394.646L341.85,394.646c-0.331,0-0.601-0.27-0.601-0.601v-4.482
						c0-0.331,0.271-0.601,0.601-0.601l0,0c0.331,0,0.601,0.271,0.601,0.601v4.482C342.451,394.375,342.181,394.646,341.85,394.646z
						"/>
				</g>
				<g>
					<g>
						<path style="fill:#42444F;" d="M306.642,429.966h-133.66c-3.57,0-6.464-2.894-6.464-6.464v-40.986
							c0-3.57,2.894-6.464,6.464-6.464h133.66c3.57,0,6.464,2.894,6.464,6.464v40.986
							C313.106,427.072,310.212,429.966,306.642,429.966z"/>
						<rect x="179.866" y="379.902" style="fill:#6F7082;" width="8.108" height="8.108"/>
						<g>
							<rect x="196.723" y="379.902" style="fill:#6F7082;" width="8.108" height="8.108"/>
							<rect x="206.111" y="379.902" style="fill:#6F7082;" width="8.108" height="8.108"/>
							<rect x="215.5" y="379.902" style="fill:#6F7082;" width="8.108" height="8.108"/>
							<rect x="224.888" y="379.902" style="fill:#6F7082;" width="8.108" height="8.108"/>
							<rect x="234.277" y="379.902" style="fill:#6F7082;" width="8.108" height="8.108"/>
						</g>
						<g>
							<rect x="252.627" y="379.902" style="fill:#6F7082;" width="8.108" height="8.108"/>
							<rect x="262.016" y="379.902" style="fill:#6F7082;" width="8.108" height="8.108"/>
							<rect x="271.404" y="379.902" style="fill:#6F7082;" width="8.108" height="8.108"/>
							<rect x="280.793" y="379.902" style="fill:#6F7082;" width="8.108" height="8.108"/>
							<rect x="290.181" y="379.902" style="fill:#6F7082;" width="8.108" height="8.108"/>
						</g>
						<g>
							<rect x="170.051" y="392.42" style="fill:#6F7082;" width="8.25" height="8.25"/>
							<rect x="181.004" y="392.42" style="fill:#6F7082;" width="8.25" height="8.25"/>
							<rect x="191.958" y="392.42" style="fill:#6F7082;" width="8.25" height="8.25"/>
							<rect x="202.911" y="392.42" style="fill:#6F7082;" width="8.25" height="8.25"/>
							<rect x="213.864" y="392.42" style="fill:#6F7082;" width="8.25" height="8.25"/>
							<rect x="224.817" y="392.42" style="fill:#6F7082;" width="8.25" height="8.25"/>
							<rect x="235.77" y="392.42" style="fill:#6F7082;" width="8.25" height="8.25"/>
							<rect x="246.724" y="392.42" style="fill:#6F7082;" width="8.25" height="8.25"/>
							<rect x="257.677" y="392.42" style="fill:#6F7082;" width="8.25" height="8.25"/>
							<rect x="268.63" y="392.42" style="fill:#6F7082;" width="8.25" height="8.25"/>
							<rect x="279.583" y="392.42" style="fill:#6F7082;" width="8.25" height="8.25"/>
							<rect x="290.537" y="392.42" style="fill:#6F7082;" width="8.25" height="8.25"/>
							<rect x="301.49" y="392.42" style="fill:#6F7082;" width="8.25" height="8.25"/>
						</g>
						<g>
							<rect x="170.051" y="412.904" style="fill:#6F7082;" width="8.25" height="8.25"/>
							<rect x="181.004" y="412.904" style="fill:#6F7082;" width="8.25" height="8.25"/>
							<rect x="191.958" y="412.904" style="fill:#6F7082;" width="52.206" height="8.25"/>
							<rect x="246.724" y="412.904" style="fill:#6F7082;" width="8.25" height="8.25"/>
							<rect x="257.677" y="412.904" style="fill:#6F7082;" width="8.25" height="8.25"/>
							<rect x="268.63" y="412.904" style="fill:#6F7082;" width="8.25" height="8.25"/>
							<rect x="279.583" y="412.904" style="fill:#6F7082;" width="8.25" height="8.25"/>
							<rect x="290.537" y="412.904" style="fill:#6F7082;" width="8.25" height="8.25"/>
							<rect x="301.49" y="412.904" style="fill:#6F7082;" width="8.25" height="8.25"/>
						</g>
						<g>
							<rect x="175.314" y="402.804" style="fill:#6F7082;" width="8.25" height="8.251"/>
							<rect x="186.268" y="402.804" style="fill:#6F7082;" width="8.25" height="8.251"/>
							<rect x="197.221" y="402.804" style="fill:#6F7082;" width="8.25" height="8.251"/>
							<rect x="208.174" y="402.804" style="fill:#6F7082;" width="8.25" height="8.251"/>
							<rect x="219.127" y="402.804" style="fill:#6F7082;" width="8.25" height="8.251"/>
							<rect x="230.081" y="402.804" style="fill:#6F7082;" width="8.25" height="8.251"/>
							<rect x="241.034" y="402.804" style="fill:#6F7082;" width="8.25" height="8.251"/>
							<rect x="251.987" y="402.804" style="fill:#6F7082;" width="8.25" height="8.251"/>
							<rect x="262.94" y="402.804" style="fill:#6F7082;" width="8.25" height="8.251"/>
							<rect x="273.893" y="402.804" style="fill:#6F7082;" width="8.25" height="8.251"/>
							<rect x="284.847" y="402.804" style="fill:#6F7082;" width="8.25" height="8.251"/>
							<rect x="295.8" y="402.804" style="fill:#6F7082;" width="8.25" height="8.251"/>
						</g>
					</g>
					<circle style="fill:#E6EAF0;" cx="307.634" cy="381.787" r="1.96"/>
				</g>
			</g>
			<g id="Artwork_4_7_">
				<g>
					<path style="fill:#E6EAF0;" d="M380.878,292.667H326.7c-2.378,0-4.306-1.928-4.306-4.306v-73.186
						c0-2.378,1.928-4.306,4.306-4.306h54.178c2.378,0,4.306,1.928,4.306,4.306v73.186
						C385.184,290.739,383.256,292.667,380.878,292.667z"/>
					<g>
						<path style="fill:#34909D;" d="M380.582,216.325c0,1.206-0.978,2.184-2.184,2.184s-2.184-0.978-2.184-2.184
							s0.978-2.184,2.184-2.184S380.582,215.118,380.582,216.325z"/>
						<path style="fill:#F8B85E;" d="M374.108,216.325c0,1.206-0.978,2.184-2.184,2.184s-2.184-0.978-2.184-2.184
							s0.978-2.184,2.184-2.184S374.108,215.118,374.108,216.325z"/>
						<path style="fill:#BA0034;" d="M367.635,216.325c0,1.206-0.978,2.184-2.184,2.184s-2.184-0.978-2.184-2.184
							s0.978-2.184,2.184-2.184S367.635,215.118,367.635,216.325z"/>
					</g>
				</g>
			</g>
			<path style="opacity:0.25;fill:#35363B;" d="M353.468,286.457v42.708H290.68v-42.708c0-2.379,1.928-4.308,4.307-4.308h54.174
				C351.54,282.15,353.468,284.078,353.468,286.457z"/>
			<g id="Artwork_4_8_">
				<g>
					<path style="fill:#6F7082;" d="M349.676,205.084h-37.128c-2.378,0-4.306-1.928-4.306-4.306v-48.204
						c0-2.378,1.928-4.306,4.306-4.306h37.128c2.378,0,4.306,1.928,4.306,4.306v48.204
						C353.982,203.156,352.054,205.084,349.676,205.084z"/>
					<g>
						<path style="fill:#34909D;" d="M349.379,153.724c0,1.206-0.978,2.184-2.184,2.184c-1.206,0-2.184-0.978-2.184-2.184
							c0-1.206,0.978-2.184,2.184-2.184C348.402,151.54,349.379,152.518,349.379,153.724z"/>
						<path style="fill:#F8B85E;" d="M342.906,153.724c0,1.206-0.978,2.184-2.184,2.184c-1.206,0-2.184-0.978-2.184-2.184
							c0-1.206,0.978-2.184,2.184-2.184C341.928,151.54,342.906,152.518,342.906,153.724z"/>
						<path style="fill:#BA0034;" d="M336.433,153.724c0,1.206-0.978,2.184-2.184,2.184c-1.206,0-2.184-0.978-2.184-2.184
							c0-1.206,0.978-2.184,2.184-2.184C335.455,151.54,336.433,152.518,336.433,153.724z"/>
					</g>
				</g>
			</g>
			<g id="Artwork_4_6_">
				<g>
					<path style="fill:#D9DDE3;" d="M346.213,340.872h-54.178c-2.378,0-4.306-1.928-4.306-4.306v-48.204
						c0-2.378,1.928-4.306,4.306-4.306h54.178c2.378,0,4.306,1.928,4.306,4.306v48.204
						C350.518,338.944,348.591,340.872,346.213,340.872z"/>
					<g>
						<path style="fill:#34909D;" d="M345.916,289.512c0,1.206-0.978,2.184-2.184,2.184s-2.184-0.978-2.184-2.184
							s0.978-2.184,2.184-2.184S345.916,288.306,345.916,289.512z"/>
						<path style="fill:#F8B85E;" d="M339.443,289.512c0,1.206-0.978,2.184-2.184,2.184c-1.206,0-2.184-0.978-2.184-2.184
							s0.978-2.184,2.184-2.184C338.465,287.328,339.443,288.306,339.443,289.512z"/>
						<path style="fill:#BA0034;" d="M332.97,289.512c0,1.206-0.978,2.184-2.184,2.184c-1.206,0-2.184-0.978-2.184-2.184
							s0.978-2.184,2.184-2.184C331.992,287.328,332.97,288.306,332.97,289.512z"/>
					</g>
				</g>
			</g>
			<g>
				<g id="text_1_">
					<path style="fill:#E6EAF0;" d="M316.174,189.168h-4.217v1.823h4.217V189.168z M331.395,194.82h11.523v-1.825h-11.523V194.82z
						 M342.914,181.51h-26.942v1.823h26.942V181.51z M311.958,198.648h10.458v-1.825h-10.458V198.648z M320.001,185.339h-8.044
						v1.823h8.044V185.339z M317.469,190.991h16.31v-1.823h-16.31V190.991z M329.216,192.994h-17.258v1.825h17.258V192.994z
						 M335.073,190.991h14.403v-1.823h-14.403V190.991z M322.18,187.162h27.296v-1.823H322.18V187.162z M344.014,181.51v1.823h5.462
						v-1.823H344.014z M345.096,194.82h4.38v-1.825h-4.38V194.82z M324.595,198.648h10.773v-1.825h-10.773V198.648z
						 M336.665,198.648h8.205v-1.825h-8.205V198.648z"/>
				</g>
				<rect x="312.495" y="159.221" style="fill:#E6EAF0;" width="37.155" height="18.909"/>
			</g>
			<g>
				<g id="text_2_">
					<path style="fill:#42444F;" d="M335.24,266.078h-5.389v2.33h5.389V266.078z M354.691,273.301h14.726v-2.333h-14.726V273.301z
						 M369.412,256.291H334.98v2.33h34.433V256.291z M329.851,278.194h13.365v-2.332h-13.365V278.194z M340.13,261.185h-10.28v2.33
						h10.28V261.185z M336.894,268.408h20.844v-2.33h-20.844V268.408z M351.907,270.969h-22.056v2.333h22.056V270.969z
						 M359.392,268.408h18.407v-2.33h-18.407V268.408z M342.915,263.515h34.884v-2.33h-34.884V263.515z M370.819,256.291v2.33h6.98
						v-2.33H370.819z M372.201,273.301h5.598v-2.333h-5.598V273.301z M346,278.194h13.769v-2.332H346V278.194z M361.426,278.194
						h10.486v-2.332h-10.486V278.194z"/>
				</g>
				<rect x="330.537" y="227.806" style="fill:#42444F;" width="47.484" height="24.166"/>
			</g>
			<g>
				<g id="gear_24_">
					<g>
						<g id="gear_26_">
							<path style="fill:#6F7082;" d="M317.448,315.918c0.133-0.692,0.2-1.406,0.2-2.136c0-0.73-0.067-1.445-0.2-2.138h-3.714
								c-0.169-0.596-0.404-1.163-0.7-1.692l2.624-2.624c-0.808-1.188-1.834-2.214-3.022-3.024l-2.626,2.626
								c-0.529-0.296-1.096-0.533-1.692-0.7v-3.716c-0.692-0.133-1.406-0.2-2.136-0.2c-0.73,0-1.445,0.067-2.138,0.2v3.716
								c-0.596,0.167-1.161,0.404-1.692,0.7l-2.626-2.626c-1.188,0.81-2.214,1.836-3.02,3.024l2.624,2.624
								c-0.296,0.529-0.533,1.096-0.7,1.692h-3.714c-0.133,0.694-0.2,1.408-0.2,2.138c0,0.73,0.067,1.445,0.2,2.136h3.714
								c0.167,0.596,0.404,1.163,0.7,1.692l-2.624,2.624c0.806,1.188,1.832,2.214,3.02,3.024l2.626-2.626
								c0.531,0.296,1.096,0.533,1.692,0.702v3.714c0.694,0.133,1.408,0.2,2.138,0.2c0.731,0,1.445-0.067,2.136-0.2v-3.714
								c0.596-0.169,1.163-0.406,1.692-0.702l2.626,2.626c1.188-0.808,2.214-1.834,3.022-3.022l-2.624-2.626
								c0.296-0.529,0.531-1.096,0.7-1.692H317.448z M306.183,316.094c-1.278,0-2.313-1.036-2.313-2.313
								c0-1.278,1.036-2.313,2.313-2.313c1.278,0,2.313,1.036,2.313,2.313C308.496,315.059,307.46,316.094,306.183,316.094z"/>
						</g>
					</g>
				</g>
				<g id="Data_server_1_">
					<g>
						<g>
							<path style="fill:#FFFFFF;" d="M321.655,319.251v5.611c0,1.127,5.027,2.042,11.228,2.042s11.228-0.914,11.228-2.042v-5.611
								H321.655z"/>
							<ellipse style="fill:#6F7082;" cx="332.883" cy="319.251" rx="11.228" ry="2.041"/>
						</g>
						<g>
							<path style="fill:#FFFFFF;" d="M321.655,311.333v5.611c0,1.127,5.027,2.042,11.228,2.042s11.228-0.914,11.228-2.042v-5.611
								H321.655z"/>
							<ellipse style="fill:#6F7082;" cx="332.883" cy="311.333" rx="11.228" ry="2.041"/>
						</g>
						<g>
							<path style="fill:#FFFFFF;" d="M321.655,303.416v5.611c0,1.127,5.027,2.042,11.228,2.042s11.228-0.914,11.228-2.042v-5.611
								H321.655z"/>
							<ellipse style="fill:#6F7082;" cx="332.883" cy="303.416" rx="11.228" ry="2.041"/>
						</g>
					</g>
				</g>
			</g>
			<g>
				<g>
					<path style="fill:#CED0D6;" d="M112.336,394.589H69.895c-5.301,0-9.598-4.297-9.598-9.598v-92.205
						c0-5.301,4.297-9.599,9.598-9.599h42.441c5.301,0,9.598,4.297,9.598,9.599v92.205
						C121.934,390.292,117.637,394.589,112.336,394.589z"/>
					<path style="fill:#42444F;" d="M98.024,289.337H84.207c-0.737,0-1.34-0.603-1.34-1.34l0,0c0-0.737,0.603-1.34,1.34-1.34h13.816
						c0.737,0,1.34,0.603,1.34,1.34l0,0C99.364,288.734,98.761,289.337,98.024,289.337z"/>
					<path style="fill:#42444F;" d="M94.039,388.573c0,1.614-1.309,2.923-2.923,2.923c-1.615,0-2.923-1.309-2.923-2.923
						c0-1.615,1.309-2.923,2.923-2.923C92.73,385.65,94.039,386.959,94.039,388.573z"/>
				</g>
				<rect x="64.65" y="297.039" style="fill:#6F7082;" width="52.931" height="81.669"/>
				<g id="login_1_">
					<g>
						<g>
							<path style="fill:#D7DBE0;" d="M111.423,344.363v3.722c0,0.873-0.705,1.578-1.571,1.578H72.386
								c-0.075,0-0.15-0.006-0.224-0.019c-0.767-0.106-1.353-0.761-1.353-1.559v-3.722c0-0.873,0.705-1.577,1.577-1.577h37.466
								c0.786,0,1.44,0.586,1.553,1.347C111.417,344.207,111.423,344.282,111.423,344.363z"/>
							<path style="fill:#FFFFFF;" d="M111.423,344.363v3.722c0,0.873-0.705,1.578-1.571,1.578H72.386
								c-0.075,0-0.15-0.006-0.224-0.019c-0.013-0.075-0.019-0.15-0.019-0.224v-3.729c0-0.867,0.705-1.577,1.571-1.577h37.466
								c0.075,0,0.15,0.006,0.225,0.019C111.417,344.207,111.423,344.282,111.423,344.363z"/>
						</g>
						<g>
							<path style="fill:#D7DBE0;" d="M111.423,353.987v3.722c0,0.873-0.705,1.578-1.571,1.578H72.386
								c-0.075,0-0.15-0.006-0.224-0.019c-0.767-0.106-1.353-0.761-1.353-1.559v-3.722c0-0.873,0.705-1.578,1.577-1.578h37.466
								c0.786,0,1.44,0.586,1.553,1.347C111.417,353.831,111.423,353.906,111.423,353.987z"/>
							<path style="fill:#FFFFFF;" d="M111.423,353.987v3.722c0,0.873-0.705,1.578-1.571,1.578H72.386
								c-0.075,0-0.15-0.006-0.224-0.019c-0.013-0.075-0.019-0.15-0.019-0.224v-3.728c0-0.867,0.705-1.578,1.571-1.578h37.466
								c0.075,0,0.15,0.006,0.225,0.019C111.417,353.831,111.423,353.906,111.423,353.987z"/>
						</g>
					</g>
					<g>
						<circle style="fill:#6F7082;" cx="83.376" cy="346.989" r="0.788"/>
						<path style="fill:#6F7082;" d="M88.423,346.989c0,0.435-0.353,0.788-0.788,0.788c-0.435,0-0.788-0.353-0.788-0.788
							s0.353-0.788,0.788-0.788C88.07,346.201,88.423,346.554,88.423,346.989z"/>
						<path style="fill:#6F7082;" d="M92.682,346.989c0,0.435-0.353,0.788-0.788,0.788c-0.435,0-0.788-0.353-0.788-0.788
							s0.353-0.788,0.788-0.788C92.329,346.201,92.682,346.554,92.682,346.989z"/>
						<circle style="fill:#6F7082;" cx="96.153" cy="346.989" r="0.788"/>
						<path style="fill:#6F7082;" d="M101.201,346.989c0,0.435-0.353,0.788-0.788,0.788c-0.435,0-0.788-0.353-0.788-0.788
							s0.353-0.788,0.788-0.788C100.848,346.201,101.201,346.554,101.201,346.989z"/>
					</g>
					<g>
						<path style="fill:#6F7082;" d="M84.164,356.189c0,0.435-0.353,0.788-0.788,0.788c-0.435,0-0.788-0.353-0.788-0.788
							c0-0.435,0.353-0.788,0.788-0.788C83.811,355.401,84.164,355.754,84.164,356.189z"/>
						<path style="fill:#6F7082;" d="M88.423,356.189c0,0.435-0.353,0.788-0.788,0.788c-0.435,0-0.788-0.353-0.788-0.788
							c0-0.435,0.353-0.788,0.788-0.788C88.07,355.401,88.423,355.754,88.423,356.189z"/>
						<path style="fill:#6F7082;" d="M92.682,356.189c0,0.435-0.353,0.788-0.788,0.788c-0.435,0-0.788-0.353-0.788-0.788
							c0-0.435,0.353-0.788,0.788-0.788C92.329,355.401,92.682,355.754,92.682,356.189z"/>
						<path style="fill:#6F7082;" d="M96.941,356.189c0,0.435-0.353,0.788-0.788,0.788c-0.435,0-0.788-0.353-0.788-0.788
							c0-0.435,0.353-0.788,0.788-0.788C96.589,355.401,96.941,355.754,96.941,356.189z"/>
						<path style="fill:#6F7082;" d="M101.201,356.189c0,0.435-0.353,0.788-0.788,0.788c-0.435,0-0.788-0.353-0.788-0.788
							c0-0.435,0.353-0.788,0.788-0.788C100.848,355.401,101.201,355.754,101.201,356.189z"/>
					</g>
				</g>
				<g id="user_man_account_1_">
					<g>
						<path style="fill:#42444F;" d="M104.678,321.306c0,3.187-1.1,6.115-2.938,8.43c-2.486,3.128-6.321,5.131-10.627,5.131
							c-4.302,0-8.137-2.003-10.623-5.131c-0.072-0.09-0.143-0.184-0.212-0.277c-1.71-2.268-2.726-5.091-2.726-8.153
							c0-7.492,6.072-13.564,13.561-13.564c4.997,0,9.362,2.701,11.714,6.72C104.006,316.471,104.678,318.808,104.678,321.306z"/>
						<path style="fill:#E6EAF0;" d="M101.741,329.737c-2.486,3.128-6.321,5.131-10.627,5.131c-4.302,0-8.137-2.003-10.623-5.131
							c1-4.271,4.511-7.573,8.888-8.274c-1.682-0.685-2.872-2.337-2.872-4.268c0-2.542,2.062-4.608,4.608-4.608
							c2.545,0,4.608,2.065,4.608,4.608c0,1.931-1.187,3.583-2.869,4.268C97.23,322.163,100.741,325.465,101.741,329.737z"/>
					</g>
				</g>
			</g>
			<g id="transform_3_">
				<g>
					<g>
						<g>
							
								<line style="fill:none;stroke:#42444F;stroke-width:1.6633;stroke-linecap:round;stroke-miterlimit:10;" x1="208.654" y1="304.117" x2="208.654" y2="304.117"/>
							
								<line style="fill:none;stroke:#42444F;stroke-width:1.6633;stroke-linecap:round;stroke-miterlimit:10;stroke-dasharray:0,3.2591;" x1="205.395" y1="304.117" x2="164.656" y2="304.117"/>
							
								<line style="fill:none;stroke:#42444F;stroke-width:1.6633;stroke-linecap:round;stroke-miterlimit:10;" x1="163.026" y1="304.117" x2="163.026" y2="304.117"/>
							
								<line style="fill:none;stroke:#42444F;stroke-width:1.6633;stroke-linecap:round;stroke-miterlimit:10;stroke-dasharray:0,3.2591;" x1="163.026" y1="300.858" x2="163.026" y2="260.119"/>
							
								<line style="fill:none;stroke:#42444F;stroke-width:1.6633;stroke-linecap:round;stroke-miterlimit:10;" x1="163.026" y1="258.489" x2="163.026" y2="258.489"/>
							
								<line style="fill:none;stroke:#42444F;stroke-width:1.6633;stroke-linecap:round;stroke-miterlimit:10;stroke-dasharray:0,3.2591;" x1="166.286" y1="258.489" x2="207.025" y2="258.489"/>
							
								<line style="fill:none;stroke:#42444F;stroke-width:1.6633;stroke-linecap:round;stroke-miterlimit:10;" x1="208.654" y1="258.489" x2="208.654" y2="258.489"/>
							
								<line style="fill:none;stroke:#42444F;stroke-width:1.6633;stroke-linecap:round;stroke-miterlimit:10;stroke-dasharray:0,3.2591;" x1="208.654" y1="261.749" x2="208.654" y2="302.488"/>
						</g>
					</g>
					<g>
						<g>
							<rect x="161.732" y="257.195" style="fill:#42444F;" width="2.588" height="2.588"/>
							<rect x="184.546" y="257.195" style="fill:#42444F;" width="2.588" height="2.588"/>
							<rect x="207.36" y="257.195" style="fill:#42444F;" width="2.588" height="2.588"/>
						</g>
						<g>
							<rect x="161.732" y="280.009" style="fill:#42444F;" width="2.588" height="2.588"/>
							<rect x="207.36" y="280.009" style="fill:#42444F;" width="2.588" height="2.588"/>
						</g>
						<g>
							<rect x="161.732" y="302.823" style="fill:#42444F;" width="2.588" height="2.588"/>
							<rect x="184.546" y="302.823" style="fill:#42444F;" width="2.588" height="2.588"/>
							<rect x="207.36" y="302.823" style="fill:#42444F;" width="2.588" height="2.588"/>
						</g>
					</g>
				</g>
			</g>
		</g>
		<circle style="fill:#6F7082;" cx="381.973" cy="397.219" r="3.978"/>
		<circle style="fill:#E6EAF0;" cx="347.45" cy="360.116" r="3.572"/>
		<path style="fill:#E6EAF0;" d="M151.807,358.33c0,2.301-1.866,4.167-4.167,4.167s-4.167-1.866-4.167-4.167
			s1.865-4.167,4.167-4.167S151.807,356.029,151.807,358.33z"/>
		<circle style="fill:#6F7082;" cx="137.719" cy="407.936" r="1.786"/>
		<path style="fill:#E6EAF0;" d="M55.771,264.477c0,1.753-1.421,3.175-3.175,3.175c-1.753,0-3.175-1.421-3.175-3.175
			c0-1.753,1.421-3.175,3.175-3.175C54.349,261.302,55.771,262.723,55.771,264.477z"/>
		<path style="fill:#E6EAF0;" d="M325.624,98.993c0,2.192-1.777,3.968-3.968,3.968c-2.192,0-3.969-1.777-3.969-3.968
			c0-2.192,1.777-3.968,3.969-3.968C323.847,95.025,325.624,96.801,325.624,98.993z"/>
		<circle style="fill:#E6EAF0;" cx="176.609" cy="155.146" r="2.579"/>
		<path style="fill:#6F7082;" d="M128.393,112.089c0,1.753-1.421,3.175-3.175,3.175c-1.753,0-3.175-1.421-3.175-3.175
			s1.421-3.175,3.175-3.175C126.971,108.914,128.393,110.336,128.393,112.089z"/>
		<circle style="fill:#6F7082;" cx="403.208" cy="112.616" r="3.209"/>
	</g>
</g>
</svg>
