<?xml version="1.0" encoding="utf-8"?>
<!-- Generator: Adobe Illustrator 27.5.0, SVG Export Plug-In . SVG Version: 6.00 Build 0)  -->
<svg version="1.1" xmlns="http://www.w3.org/2000/svg" xmlns:xlink="http://www.w3.org/1999/xlink" x="0px" y="0px"
	 viewBox="0 0 500 500" style="enable-background:new 0 0 500 500;" xml:space="preserve">
<g id="Background">
	<rect style="fill:transparent;" width="500" height="500"/>
</g>
<g id="Objects">
	<g>
		
			<ellipse transform="matrix(0.7071 -0.7071 0.7071 0.7071 -103.8042 250.1515)" style="fill:none;stroke:#6F7082;stroke-width:2.9883;stroke-linecap:round;stroke-miterlimit:10;stroke-dasharray:0,5.9766;" cx="250.057" cy="250.378" rx="178.234" ry="178.234"/>
		<g>
			<path style="fill:#AEB6BF;" d="M353.914,156.812H167.33c-5.293,0-9.593,4.3-9.593,9.593v189.088c0,5.293,4.3,9.582,9.593,9.582
				h186.584c5.293,0,9.593-4.289,9.593-9.582V166.404C363.507,161.111,359.207,156.812,353.914,156.812z"/>
			<path style="fill:#CACED4;" d="M343.35,135.682H156.765c-5.293,0-9.593,4.3-9.593,9.593v189.088c0,5.293,4.3,9.582,9.593,9.582
				H343.35c5.293,0,9.593-4.289,9.593-9.582V145.275C352.942,139.982,348.643,135.682,343.35,135.682z"/>
			<g>
				<path style="fill:#E6EAF0;" d="M342.378,155.84v189.088c0,5.293-4.3,9.582-9.593,9.582H146.2c-5.293,0-9.593-4.289-9.593-9.582
					V155.84c0-5.293,4.3-9.593,9.593-9.593h186.585C338.078,146.247,342.378,150.547,342.378,155.84z"/>
				<path style="fill:#D2D7DE;" d="M342.378,155.84v8.505h-205.77v-8.505c0-5.293,4.3-9.593,9.593-9.593h186.585
					C338.078,146.247,342.378,150.547,342.378,155.84z"/>
				<g id="Artwork_4_5_">
					<g>
						<g>
							<path style="fill:#34909D;" d="M172.932,156.524c0,1.866-1.512,3.378-3.378,3.378c-1.866,0-3.378-1.512-3.378-3.378
								s1.512-3.378,3.378-3.378C171.42,153.146,172.932,154.658,172.932,156.524z"/>
							<path style="fill:#F8B85E;" d="M162.921,156.524c0,1.866-1.512,3.378-3.378,3.378s-3.378-1.512-3.378-3.378
								s1.512-3.378,3.378-3.378S162.921,154.658,162.921,156.524z"/>
							<path style="fill:#BA0034;" d="M152.909,156.524c0,1.866-1.512,3.378-3.378,3.378s-3.378-1.512-3.378-3.378
								s1.512-3.378,3.378-3.378S152.909,154.658,152.909,156.524z"/>
						</g>
					</g>
				</g>
			</g>
			<g>
				<g id="Text_5_">
					<g>
						<rect x="164.985" y="294.486" style="fill:#42444F;" width="24.886" height="5.556"/>
						<rect x="192.081" y="294.486" style="fill:#42444F;" width="19.157" height="5.556"/>
						<rect x="213.285" y="294.486" style="fill:#42444F;" width="15.21" height="5.556"/>
						<rect x="177.263" y="307.339" style="fill:#42444F;" width="51.232" height="5.556"/>
						<rect x="164.985" y="307.339" style="fill:#42444F;" width="9.413" height="5.556"/>
						<rect x="193.228" y="320.192" style="fill:#42444F;" width="24.233" height="5.556"/>
						<rect x="219.753" y="320.192" style="fill:#42444F;" width="8.743" height="5.556"/>
						<rect x="164.985" y="320.192" style="fill:#42444F;" width="26.032" height="5.556"/>
						<rect x="183.24" y="333.045" style="fill:#42444F;" width="21.105" height="5.556"/>
						<rect x="164.985" y="333.045" style="fill:#42444F;" width="15.88" height="5.556"/>
					</g>
				</g>
				<g id="Text_6_">
					<g>
						<rect x="250.386" y="186.383" style="fill:#42444F;" width="24.886" height="5.556"/>
						<rect x="277.483" y="186.383" style="fill:#42444F;" width="19.157" height="5.556"/>
						<rect x="298.686" y="186.383" style="fill:#42444F;" width="15.21" height="5.556"/>
						<rect x="262.665" y="199.236" style="fill:#42444F;" width="51.232" height="5.556"/>
						<rect x="250.386" y="199.236" style="fill:#42444F;" width="9.413" height="5.556"/>
						<rect x="278.629" y="212.089" style="fill:#42444F;" width="24.233" height="5.556"/>
						<rect x="305.154" y="212.089" style="fill:#42444F;" width="8.743" height="5.556"/>
						<rect x="250.386" y="212.089" style="fill:#42444F;" width="26.032" height="5.556"/>
						<rect x="268.641" y="224.943" style="fill:#42444F;" width="21.105" height="5.556"/>
						<rect x="250.386" y="224.943" style="fill:#42444F;" width="15.88" height="5.556"/>
					</g>
				</g>
				<g id="Text_7_">
					<g>
						<rect x="250.386" y="240.975" style="fill:#42444F;" width="24.886" height="5.556"/>
						<rect x="277.483" y="240.975" style="fill:#42444F;" width="19.157" height="5.556"/>
						<rect x="298.686" y="240.975" style="fill:#42444F;" width="15.21" height="5.556"/>
						<rect x="278.629" y="254.415" style="fill:#42444F;" width="24.233" height="5.556"/>
						<rect x="305.154" y="254.415" style="fill:#42444F;" width="8.743" height="5.556"/>
						<rect x="250.386" y="254.415" style="fill:#42444F;" width="26.032" height="5.556"/>
						<rect x="268.641" y="267.269" style="fill:#42444F;" width="21.105" height="5.556"/>
						<rect x="250.386" y="267.269" style="fill:#42444F;" width="15.88" height="5.556"/>
					</g>
				</g>
				<path style="fill:#42444F;" d="M310.457,339.707h-56.528c-1.957,0-3.543-1.586-3.543-3.543v-38.986
					c0-1.957,1.586-3.543,3.543-3.543h56.528c1.957,0,3.543,1.586,3.543,3.543v38.986C314,338.12,312.414,339.707,310.457,339.707z"
					/>
				<path style="fill:#55C0ED;" d="M223.183,272.576h-52.781c-2.991,0-5.416-2.425-5.416-5.416v-74.749
					c0-2.991,2.425-5.416,5.416-5.416h52.781c2.991,0,5.416,2.425,5.416,5.416v74.749
					C228.599,270.151,226.174,272.576,223.183,272.576z"/>
			</g>
		</g>
		<g>
			
				<ellipse transform="matrix(0.2248 -0.9744 0.9744 0.2248 -68.334 662.2518)" style="fill:#E6EAF0;" cx="382.042" cy="374.072" rx="51.552" ry="51.552"/>
			<circle style="fill:#35363B;" cx="382.042" cy="374.072" r="46.41"/>
			
				<text transform="matrix(1 0 0 1 347.9277 381.9707)" style="fill:#55C0ED; font-family:'Montserrat-Black'; font-size:27.2373px; letter-spacing:1;">Inxtra</text>
		</g>
		<g>
			<g id="Artwork_2_7_">
				<g>
					<path style="fill:#6F7082;" d="M113.844,400.83H71.847c-2.049,0-3.711-1.661-3.711-3.711v-82.131
						c0-2.049,1.661-3.71,3.711-3.71h41.997c2.049,0,3.71,1.661,3.71,3.71v82.131C117.555,399.169,115.893,400.83,113.844,400.83z"
						/>
					<rect x="70.294" y="315.856" style="fill:#E6EAF0;" width="45.104" height="73.426"/>
				</g>
			</g>
			<path style="fill:#55C0ED;" d="M81.693,394.134h-7.546c-0.931,0-1.692,0.762-1.692,1.692c0,0.931,0.762,1.692,1.692,1.692h7.546
				c0.931,0,1.692-0.762,1.692-1.692C83.386,394.896,82.624,394.134,81.693,394.134z M96.618,394.134h-7.546
				c-0.931,0-1.692,0.762-1.692,1.692c0,0.931,0.761,1.692,1.692,1.692h7.546c0.931,0,1.692-0.762,1.692-1.692
				C98.311,394.896,97.549,394.134,96.618,394.134z M111.543,394.134h-7.546c-0.931,0-1.692,0.762-1.692,1.692
				c0,0.931,0.761,1.692,1.692,1.692h7.546c0.931,0,1.692-0.762,1.692-1.692C113.236,394.896,112.474,394.134,111.543,394.134z"/>
		</g>
		<g id="_x30__12_">
			<g>
				<path style="fill:#6F7082;" d="M107.023,269.862L95.814,281.07c-0.635,0.635-1.674,0.635-2.309,0l0,0
					c-0.635-0.635-0.635-1.674,0-2.309l11.209-11.209c0.635-0.635,1.674-0.635,2.309,0l0,0
					C107.658,268.188,107.658,269.227,107.023,269.862z"/>
				<path style="fill:#6F7082;" d="M112.354,264.53l-1.301,1.301c-0.635,0.635-1.674,0.635-2.309,0l0,0
					c-0.635-0.635-0.635-1.674,0-2.309l1.301-1.301c0.635-0.635,1.674-0.635,2.309,0l0,0
					C112.989,262.856,112.989,263.895,112.354,264.53z"/>
				<path style="fill:#6F7082;" d="M118.926,257.959l-0.232,0.232c-0.635,0.635-1.674,0.635-2.309,0l0,0
					c-0.635-0.635-0.635-1.674,0-2.309l0.232-0.232c0.635-0.635,1.674-0.635,2.309,0l0,0
					C119.561,256.285,119.561,257.324,118.926,257.959z"/>
			</g>
		</g>
		<g>
			<g>
				<g id="folder_file_3_">
					<g>
						<path style="fill:#35363B;" d="M66.499,211.188l3.597,3.597c0.522,0.522,1.23,0.815,1.967,0.815h23.808
							c1.537,0,2.783,1.246,2.783,2.783v20.655c0,1.537-1.246,2.782-2.783,2.782H54.669c-1.537,0-2.782-1.246-2.782-2.782v-25.882
							c0-1.537,1.246-2.783,2.782-2.783h9.863C65.27,210.373,65.978,210.666,66.499,211.188z"/>
					</g>
				</g>
				<g id="folder_file_4_">
					<g>
						<path style="fill:#42444F;" d="M59.804,217.883l3.597,3.597c0.522,0.522,1.229,0.815,1.967,0.815h23.808
							c1.537,0,2.782,1.246,2.782,2.782v20.655c0,1.537-1.246,2.783-2.782,2.783H47.974c-1.537,0-2.782-1.246-2.782-2.783v-25.882
							c0-1.537,1.246-2.783,2.782-2.783h9.863C58.575,217.068,59.283,217.361,59.804,217.883z"/>
					</g>
				</g>
				<g id="folder_file_5_">
					<g>
						<path style="fill:#6F7082;" d="M53.109,224.578l3.597,3.597c0.522,0.522,1.229,0.815,1.967,0.815h23.808
							c1.537,0,2.782,1.246,2.782,2.782v20.655c0,1.537-1.246,2.783-2.782,2.783H41.279c-1.537,0-2.782-1.246-2.782-2.783v-25.882
							c0-1.537,1.246-2.782,2.782-2.782h9.863C51.88,223.763,52.588,224.056,53.109,224.578z"/>
					</g>
				</g>
			</g>
			<path style="fill:#FFFFFF;" d="M58.32,239.167v7.249c0,0.53,0.576,0.858,1.032,0.588l5.851-3.469
				c0.436-0.259,0.449-0.886,0.022-1.162l-5.851-3.78C58.919,238.299,58.32,238.626,58.32,239.167z"/>
		</g>
		<g>
			<g>
				<g>
					<g id="folder_file_8_">
						<g>
							<path style="fill:#35363B;" d="M87.322,151.004l3.597,3.597c0.522,0.522,1.229,0.815,1.967,0.815h23.808
								c1.537,0,2.783,1.246,2.783,2.783v20.655c0,1.537-1.246,2.783-2.783,2.783H75.492c-1.537,0-2.783-1.246-2.783-2.783v-25.882
								c0-1.537,1.246-2.783,2.783-2.783h9.863C86.093,150.189,86.801,150.482,87.322,151.004z"/>
						</g>
					</g>
					<g id="folder_file_7_">
						<g>
							<path style="fill:#42444F;" d="M80.627,157.699l3.597,3.597c0.522,0.522,1.23,0.815,1.967,0.815h23.808
								c1.537,0,2.783,1.246,2.783,2.782v20.655c0,1.537-1.246,2.783-2.783,2.783H68.797c-1.537,0-2.783-1.246-2.783-2.783v-25.882
								c0-1.537,1.246-2.783,2.783-2.783h9.863C79.398,156.884,80.106,157.177,80.627,157.699z"/>
						</g>
					</g>
					<g id="folder_file_6_">
						<g>
							<path style="fill:#55C0ED;" d="M73.932,164.394l3.597,3.597c0.522,0.522,1.23,0.815,1.967,0.815h23.808
								c1.537,0,2.783,1.246,2.783,2.783v20.655c0,1.537-1.246,2.783-2.783,2.783H62.102c-1.537,0-2.782-1.246-2.782-2.783v-25.882
								c0-1.537,1.246-2.783,2.782-2.783h9.863C72.703,163.579,73.411,163.872,73.932,164.394z"/>
						</g>
					</g>
				</g>
			</g>
			<path style="fill:#E6EAF0;" d="M73.467,181.219h-2.631v1.138h2.631V181.219z M82.965,184.746h7.19v-1.139h-7.19V184.746z
				 M74.275,182.357h10.177v-1.138H74.275V182.357z M90.152,176.441H73.34v1.138h16.813V176.441z M75.855,178.83h-5.019v1.138h5.019
				V178.83z M81.605,183.607h-10.77v1.139h10.77V183.607z M86.253,187.135h5.12v-1.139h-5.12V187.135z M70.835,187.135h6.526v-1.139
				h-6.526V187.135z M77.214,179.968h17.033v-1.138H77.214V179.968z M90.839,176.441v1.138h3.408v-1.138H90.839z M85.26,182.357
				h8.988v-1.138H85.26V182.357z M91.514,184.746h2.733v-1.139h-2.733V184.746z M78.721,187.135h6.723v-1.139h-6.723V187.135z"/>
		</g>
		<g>
			<path style="fill:#6F7082;" d="M432.705,119.587H285.383c-6.683,0-12.101-5.418-12.101-12.101v0
				c0-6.683,5.418-12.101,12.101-12.101h147.322c6.683,0,12.101,5.418,12.101,12.101v0
				C444.806,114.169,439.388,119.587,432.705,119.587z"/>
			
				<text transform="matrix(1 0 0 1 302.7207 110.7549)" style="fill:#E6EAF0; font-family:'Montserrat-Black'; font-size:10.2813px;">yourwebsite</text>
			<g id="Search_1_">
				<g>
					<path style="fill:#FFFFFF;" d="M439.352,112.595l-4.357-4.357l-0.698,0.698l-0.793-0.793c1.87-2.436,1.717-5.925-0.513-8.156
						c-2.426-2.426-6.358-2.426-8.784,0c-2.426,2.426-2.426,6.358,0,8.784c2.256,2.256,5.8,2.386,8.238,0.446l0.786,0.786
						l-0.698,0.698l4.357,4.357c0.68,0.68,1.782,0.68,2.462,0h0C440.032,114.378,440.032,113.275,439.352,112.595z M428.599,108.925
						c-0.494,0-0.97-0.079-1.415-0.225c-1.259-0.412-2.275-1.359-2.781-2.572c-0.226-0.538-0.35-1.128-0.35-1.749
						c0-2.511,2.036-4.546,4.546-4.546c0.62,0,1.212,0.124,1.75,0.348c1.212,0.507,2.158,1.523,2.57,2.782
						c0.146,0.446,0.225,0.921,0.225,1.415C433.144,106.89,431.109,108.925,428.599,108.925z"/>
				</g>
			</g>
			<path style="fill:#42444F;" d="M417.201,116.244L417.201,116.244c-0.222,0-0.404-0.182-0.404-0.404V98.342
				c0-0.222,0.182-0.404,0.404-0.404l0,0c0.222,0,0.404,0.182,0.404,0.404v17.498C417.605,116.062,417.423,116.244,417.201,116.244z
				"/>
		</g>
		<g>
			<g>
				<path style="fill:#42444F;" d="M456.159,200.427h-61.441c-1.961,0-3.551-1.59-3.551-3.551v-16.595
					c0-1.961,1.59-3.551,3.551-3.551h61.441c1.961,0,3.551,1.59,3.551,3.551v16.595C459.71,198.837,458.121,200.427,456.159,200.427
					z"/>
				<rect x="397.114" y="180.556" style="fill:#E6EAF0;" width="15.87" height="15.87"/>
				<g>
					<rect x="418.066" y="181.002" style="fill:#E6EAF0;" width="34.861" height="2.14"/>
					<rect x="418.066" y="185.281" style="fill:#E6EAF0;" width="29.43" height="2.14"/>
					<rect x="418.066" y="189.561" style="fill:#E6EAF0;" width="34.861" height="2.14"/>
					<rect x="418.066" y="193.84" style="fill:#E6EAF0;" width="18.01" height="2.14"/>
				</g>
			</g>
			<g>
				<path style="fill:#42444F;" d="M456.159,231.661h-61.441c-1.961,0-3.551-1.59-3.551-3.551v-16.595
					c0-1.961,1.59-3.551,3.551-3.551h61.441c1.961,0,3.551,1.59,3.551,3.551v16.595C459.71,230.071,458.121,231.661,456.159,231.661
					z"/>
				<path style="fill:#E6EAF0;" d="M405.049,227.66L405.049,227.66c-4.382,0-7.935-3.553-7.935-7.935l0,0
					c0-4.382,3.553-7.935,7.935-7.935l0,0c4.382,0,7.935,3.553,7.935,7.935l0,0C412.984,224.107,409.431,227.66,405.049,227.66z"/>
				<g>
					<rect x="422.092" y="212.236" style="fill:#E6EAF0;" width="30.834" height="2.14"/>
					<rect x="418.066" y="216.515" style="fill:#E6EAF0;" width="34.861" height="2.14"/>
					<rect x="426.118" y="220.795" style="fill:#E6EAF0;" width="26.808" height="2.14"/>
					<rect x="418.066" y="225.074" style="fill:#E6EAF0;" width="18.01" height="2.14"/>
				</g>
			</g>
			<path style="fill:#42444F;" d="M402.441,217.154v5.346c0,0.39,0.425,0.633,0.761,0.433l4.315-2.559
				c0.322-0.191,0.331-0.654,0.016-0.857l-4.315-2.788C402.883,216.514,402.441,216.755,402.441,217.154z"/>
			<g>
				<path style="fill:#42444F;" d="M456.159,262.895h-61.441c-1.961,0-3.551-1.59-3.551-3.551v-16.595
					c0-1.961,1.59-3.551,3.551-3.551h61.441c1.961,0,3.551,1.59,3.551,3.551v16.595C459.71,261.305,458.121,262.895,456.159,262.895
					z"/>
				<rect x="397.114" y="243.024" style="fill:#E6EAF0;" width="15.87" height="15.87"/>
				<g>
					<rect x="418.066" y="243.47" style="fill:#E6EAF0;" width="34.861" height="2.14"/>
					<rect x="418.066" y="247.749" style="fill:#E6EAF0;" width="30.477" height="2.14"/>
					<rect x="418.066" y="252.029" style="fill:#E6EAF0;" width="31.908" height="2.14"/>
					<rect x="418.066" y="256.309" style="fill:#E6EAF0;" width="18.01" height="2.14"/>
				</g>
			</g>
			<g>
				<g>
					<path style="fill:#42444F;" d="M456.159,294.129h-61.441c-1.961,0-3.551-1.59-3.551-3.551v-16.595
						c0-1.961,1.59-3.551,3.551-3.551h61.441c1.961,0,3.551,1.59,3.551,3.551v16.595
						C459.71,292.539,458.121,294.129,456.159,294.129z"/>
					<path style="fill:#E6EAF0;" d="M405.049,290.128L405.049,290.128c-4.382,0-7.935-3.553-7.935-7.935v0
						c0-4.382,3.553-7.935,7.935-7.935l0,0c4.382,0,7.935,3.553,7.935,7.935v0C412.984,286.575,409.431,290.128,405.049,290.128z"/>
					<g>
						<rect x="420.124" y="274.704" style="fill:#E6EAF0;" width="29.403" height="2.14"/>
						<rect x="418.066" y="278.983" style="fill:#E6EAF0;" width="21.53" height="2.14"/>
						<rect x="418.066" y="283.263" style="fill:#E6EAF0;" width="34.861" height="2.14"/>
						<rect x="418.066" y="287.543" style="fill:#E6EAF0;" width="18.01" height="2.14"/>
					</g>
				</g>
				<path style="fill:#42444F;" d="M402.441,279.182v5.346c0,0.391,0.425,0.633,0.761,0.434l4.315-2.559
					c0.322-0.191,0.331-0.654,0.016-0.857l-4.315-2.788C402.883,278.542,402.441,278.783,402.441,279.182z"/>
			</g>
			<g id="view_eye_1_">
				<g>
					<g>
						<path style="fill:#55C0ED;" d="M459.061,211.437c2.67,0,5.031-1.325,6.461-3.352c-1.43-2.028-3.791-3.353-6.461-3.353
							c-2.67,0-5.031,1.325-6.461,3.353C454.031,210.112,456.391,211.437,459.061,211.437z"/>
					</g>
					<circle style="fill:#FFFFFF;" cx="459.061" cy="208.084" r="2.062"/>
				</g>
			</g>
			<g>
				<g id="view_eye_2_">
					<g>
						<g>
							<path style="fill:#55C0ED;" d="M459.061,273.942c2.67,0,5.031-1.325,6.461-3.353c-1.43-2.028-3.791-3.353-6.461-3.353
								c-2.67,0-5.031,1.325-6.461,3.353C454.031,272.618,456.391,273.942,459.061,273.942z"/>
						</g>
						<circle style="fill:#FFFFFF;" cx="459.061" cy="270.59" r="2.062"/>
					</g>
				</g>
				
					<rect x="453.589" y="269.9" transform="matrix(0.7071 -0.7071 0.7071 0.7071 -56.7679 403.7737)" style="fill:#35363B;" width="10.85" height="1.023"/>
			</g>
		</g>
		<path style="fill:#E6EAF0;" d="M285.123,433.256H176.264c-13.723,0-24.951-11.228-24.951-24.951l0,0
			c0-13.723,11.228-24.951,24.951-24.951h108.858c13.723,0,24.951,11.228,24.951,24.951l0,0
			C310.074,422.028,298.846,433.256,285.123,433.256z"/>
		<g>
			<g id="setting_1_">
				<g>
					<polygon style="fill:#FFFFFF;" points="213.189,417.202 220.773,409.618 219.256,408.102 211.673,415.685 210.156,416.528 
						208.302,419.392 209.482,420.572 212.347,418.718 					"/>
					<path style="fill:#42444F;" d="M227.598,408.86l7.791-7.791c0.221-0.221,0.375-0.497,0.448-0.801
						c0.25-1.045,0.613-3.453-1.582-5.648c-2.195-2.195-4.602-1.832-5.648-1.582c-0.304,0.073-0.58,0.227-0.801,0.448l-7.791,7.791
						c1.21,1.21,1.21,3.172,0,4.381l-0.674,0.674l-1.18-1.18l-1.264,1.264l5.561,5.561l1.264-1.264l-1.18-1.18l0.674-0.674
						C224.426,407.65,226.388,407.65,227.598,408.86z"/>
				</g>
				<g>
					<path style="fill:#42444F;" d="M184.298,413.552l9.206-9.206c0.554-0.554,1.314-0.836,2.098-0.821
						c1.459,0.028,2.927-0.514,4.04-1.627c1.484-1.484,1.954-3.599,1.409-5.483l-2.737,2.737l-3.018-0.809l-0.809-3.018l2.716-2.716
						c-1.869-0.519-3.956-0.045-5.426,1.424c-1.113,1.113-1.656,2.581-1.627,4.04c0.015,0.784-0.267,1.544-0.821,2.098l-9.206,9.206
						c-0.554,0.554-1.314,0.836-2.098,0.821c-1.459-0.029-2.927,0.514-4.04,1.627c-2.257,2.257-2.168,5.971,0.265,8.114
						c2.123,1.87,5.38,1.822,7.452-0.105c1.228-1.142,1.819-2.697,1.774-4.236C183.454,414.831,183.757,414.092,184.298,413.552z
						 M177.26,418.097l-1.731-1.731l0.634-2.365l2.365-0.634l1.731,1.731l-0.634,2.365L177.26,418.097z"/>
					<path style="fill:#E6EAF0;" d="M184.517,409.157L184.517,409.157c-0.318-0.318-0.318-0.838,0-1.155l2.952-2.952
						c0.318-0.318,0.838-0.318,1.155,0l0,0c0.318,0.318,0.318,0.837,0,1.155l-2.952,2.952
						C185.354,409.475,184.835,409.475,184.517,409.157z"/>
				</g>
			</g>
			<g>
				<g id="gear_14_">
					<path style="fill:#42444F;" d="M267.957,406.441c0.12-0.627,0.181-1.275,0.181-1.937c0-0.663-0.061-1.31-0.181-1.939h-3.368
						c-0.154-0.54-0.366-1.055-0.635-1.534l2.38-2.379c-0.733-1.077-1.663-2.008-2.74-2.742l-2.381,2.382
						c-0.479-0.268-0.994-0.483-1.534-0.635v-3.37c-0.627-0.12-1.275-0.181-1.937-0.181c-0.662,0-1.31,0.061-1.939,0.181v3.37
						c-0.54,0.152-1.053,0.366-1.534,0.635l-2.381-2.382c-1.077,0.735-2.008,1.665-2.739,2.742l2.38,2.379
						c-0.268,0.479-0.483,0.994-0.635,1.534h-3.368c-0.12,0.629-0.181,1.277-0.181,1.939c0,0.662,0.061,1.31,0.181,1.937h3.368
						c0.152,0.54,0.366,1.055,0.635,1.534l-2.38,2.38c0.731,1.077,1.662,2.008,2.739,2.742l2.381-2.382
						c0.481,0.268,0.994,0.483,1.534,0.637v3.368c0.629,0.12,1.277,0.181,1.939,0.181c0.663,0,1.31-0.061,1.937-0.181v-3.368
						c0.54-0.154,1.055-0.368,1.534-0.637l2.381,2.382c1.077-0.733,2.008-1.663,2.74-2.74l-2.38-2.382
						c0.268-0.479,0.481-0.994,0.635-1.534H267.957z M257.741,406.6c-1.159,0-2.098-0.939-2.098-2.098
						c0-1.159,0.939-2.098,2.098-2.098c1.159,0,2.098,0.939,2.098,2.098C259.839,405.661,258.9,406.6,257.741,406.6z"/>
				</g>
				<g id="gear_15_">
					<path style="fill:#42444F;" d="M277.713,414.005c0.073-0.381,0.11-0.775,0.11-1.177c0-0.402-0.037-0.796-0.11-1.178h-2.046
						c-0.093-0.328-0.223-0.641-0.386-0.932l1.446-1.446c-0.445-0.654-1.011-1.22-1.665-1.666l-1.447,1.447
						c-0.291-0.163-0.604-0.293-0.932-0.386v-2.047c-0.381-0.073-0.775-0.11-1.177-0.11c-0.402,0-0.796,0.037-1.178,0.11v2.047
						c-0.328,0.092-0.64,0.223-0.932,0.386l-1.447-1.447c-0.654,0.446-1.22,1.012-1.664,1.666l1.446,1.446
						c-0.163,0.291-0.293,0.604-0.386,0.932h-2.046c-0.073,0.382-0.11,0.776-0.11,1.178c0,0.403,0.037,0.796,0.11,1.177h2.046
						c0.092,0.328,0.223,0.641,0.386,0.932l-1.446,1.446c0.444,0.654,1.01,1.22,1.664,1.666l1.447-1.447
						c0.292,0.163,0.604,0.293,0.932,0.387v2.046c0.382,0.073,0.776,0.11,1.178,0.11c0.403,0,0.796-0.037,1.177-0.11v-2.046
						c0.328-0.093,0.641-0.224,0.932-0.387l1.447,1.447c0.654-0.445,1.22-1.011,1.665-1.665l-1.446-1.447
						c0.163-0.291,0.292-0.604,0.386-0.932H277.713z M271.506,414.102c-0.704,0-1.275-0.571-1.275-1.275
						c0-0.704,0.571-1.275,1.275-1.275c0.704,0,1.275,0.571,1.275,1.275C272.781,413.531,272.21,414.102,271.506,414.102z"/>
				</g>
			</g>
		</g>
		<g id="_x30__13_">
			<path style="fill:#6F7082;" d="M262.132,86.697h-1.896c-1.05,0-1.901-0.851-1.901-1.901V82.9c0-0.925-0.62-1.778-1.527-1.958
				c-1.219-0.242-2.298,0.696-2.298,1.874v1.98c0,1.05-0.851,1.901-1.901,1.901h-1.896c-0.925,0-1.778,0.62-1.958,1.527
				c-0.242,1.219,0.696,2.298,1.874,2.298h1.98c1.05,0,1.901,0.851,1.901,1.901v1.896c0,0.925,0.62,1.778,1.527,1.958
				c1.219,0.242,2.298-0.696,2.298-1.874v-1.98c0-1.05,0.851-1.901,1.901-1.901h1.98c1.178,0,2.116-1.079,1.874-2.298
				C263.91,87.317,263.057,86.697,262.132,86.697z"/>
		</g>
		<g id="_x30__14_">
			<path style="fill:#E6EAF0;" d="M380.856,305.483h-1.162c-0.644,0-1.165-0.522-1.165-1.165v-1.162c0-0.567-0.38-1.09-0.936-1.2
				c-0.747-0.148-1.408,0.427-1.408,1.149v1.214c0,0.643-0.522,1.165-1.165,1.165h-1.162c-0.567,0-1.09,0.38-1.2,0.936
				c-0.148,0.747,0.427,1.408,1.149,1.408h1.214c0.644,0,1.165,0.522,1.165,1.165v1.162c0,0.567,0.38,1.09,0.936,1.2
				c0.747,0.148,1.408-0.427,1.408-1.149v-1.213c0-0.644,0.522-1.165,1.165-1.165h1.214c0.722,0,1.297-0.661,1.149-1.408
				C381.946,305.863,381.423,305.483,380.856,305.483z"/>
		</g>
		<g id="_x30__15_">
			<path style="fill:#6F7082;" d="M123.068,420.134h-1.407c-0.779,0-1.411-0.632-1.411-1.411v-1.407c0-0.686-0.46-1.319-1.133-1.453
				c-0.904-0.18-1.705,0.517-1.705,1.391v1.469c0,0.779-0.632,1.411-1.411,1.411h-1.407c-0.686,0-1.319,0.46-1.453,1.133
				c-0.179,0.904,0.517,1.705,1.391,1.705h1.469c0.779,0,1.411,0.632,1.411,1.411v1.407c0,0.686,0.46,1.319,1.133,1.453
				c0.904,0.18,1.705-0.517,1.705-1.391v-1.469c0-0.779,0.632-1.411,1.411-1.411h1.469c0.874,0,1.57-0.801,1.39-1.705
				C124.387,420.594,123.754,420.134,123.068,420.134z"/>
		</g>
		<g id="_x30__16_">
			<path style="fill:#E6EAF0;" d="M121.538,294.059h-1.285c-0.711,0-1.288-0.577-1.288-1.288v-1.284c0-0.627-0.42-1.204-1.034-1.326
				c-0.825-0.164-1.557,0.472-1.557,1.27v1.341c0,0.711-0.577,1.288-1.288,1.288h-1.285c-0.627,0-1.204,0.42-1.326,1.034
				c-0.164,0.825,0.472,1.557,1.27,1.557h1.341c0.711,0,1.288,0.577,1.288,1.288v1.284c0,0.627,0.42,1.204,1.034,1.326
				c0.826,0.164,1.557-0.472,1.557-1.27v-1.341c0-0.711,0.577-1.288,1.288-1.288h1.341c0.798,0,1.433-0.731,1.27-1.557
				C122.743,294.479,122.165,294.059,121.538,294.059z"/>
		</g>
		<g id="_x30__17_">
			<path style="fill:#6F7082;" d="M137.808,136.411h-1.162c-0.643,0-1.165-0.522-1.165-1.165v-1.162c0-0.567-0.38-1.09-0.936-1.2
				c-0.747-0.148-1.408,0.427-1.408,1.149v1.214c0,0.644-0.522,1.165-1.165,1.165h-1.162c-0.567,0-1.09,0.38-1.2,0.936
				c-0.148,0.747,0.427,1.409,1.149,1.409h1.213c0.644,0,1.165,0.522,1.165,1.165v1.162c0,0.567,0.38,1.09,0.936,1.2
				c0.747,0.148,1.408-0.427,1.408-1.149v-1.214c0-0.644,0.522-1.165,1.165-1.165h1.214c0.722,0,1.297-0.662,1.149-1.409
				C138.897,136.791,138.375,136.411,137.808,136.411z"/>
		</g>
		<g>
			<path style="fill:#42444F;" d="M224.262,89.704c-1.256,0-2.478,0.142-3.656,0.403c-2.021-13.062-12.832-23.214-26.197-24.238
				c-6.398-7.534-15.934-12.321-26.593-12.321c-17.434,0-31.88,12.792-34.466,29.502c-1.428-0.317-2.91-0.489-4.433-0.489
				c-11.252,0-20.373,9.121-20.373,20.373c0,11.252,9.121,20.373,20.373,20.373h95.344c9.279,0,16.802-7.522,16.802-16.801
				C241.063,97.226,233.541,89.704,224.262,89.704z"/>
			<g>
				<g>
					<g>
						<path style="fill:#CFD3D9;" d="M152.213,102.294v8.771c0,1.762,7.859,3.191,17.553,3.191c9.695,0,17.553-1.429,17.553-3.191
							v-8.771H152.213z"/>
						<ellipse style="fill:#E6EAF0;" cx="169.766" cy="102.294" rx="17.553" ry="3.191"/>
					</g>
					<g>
						<path style="fill:#CFD3D9;" d="M152.213,89.916v8.771c0,1.763,7.859,3.192,17.553,3.192c9.695,0,17.553-1.429,17.553-3.192
							v-8.771H152.213z"/>
						<ellipse style="fill:#E6EAF0;" cx="169.766" cy="89.916" rx="17.553" ry="3.191"/>
					</g>
					<g>
						<path style="fill:#CFD3D9;" d="M152.213,77.537v8.771c0,1.762,7.859,3.191,17.553,3.191c9.695,0,17.553-1.429,17.553-3.191
							v-8.771H152.213z"/>
						<path style="fill:#E6EAF0;" d="M187.32,77.537c0,1.763-7.859,3.192-17.553,3.192c-9.694,0-17.553-1.429-17.553-3.192
							c0-1.763,7.859-3.191,17.553-3.191C179.461,74.346,187.32,75.775,187.32,77.537z"/>
					</g>
				</g>
				<path style="fill:#55C0ED;" d="M182.901,84.223c0,1.106-0.896,2.002-2.002,2.002c-1.106,0-2.002-0.896-2.002-2.002
					c0-1.106,0.896-2.002,2.002-2.002C182.005,82.22,182.901,83.117,182.901,84.223z"/>
				<path style="fill:#E6EAF0;" d="M182.901,96.373c0,1.106-0.896,2.003-2.002,2.003c-1.106,0-2.002-0.897-2.002-2.003
					c0-1.106,0.896-2.002,2.002-2.002C182.005,94.371,182.901,95.267,182.901,96.373z"/>
				<path style="fill:#E6EAF0;" d="M182.901,109.063c0,1.106-0.896,2.003-2.002,2.003c-1.106,0-2.002-0.897-2.002-2.003
					c0-1.106,0.896-2.002,2.002-2.002C182.005,107.06,182.901,107.957,182.901,109.063z"/>
			</g>
		</g>
		<circle style="fill:#E6EAF0;" cx="363.144" cy="131.236" r="3.468"/>
		<circle style="fill:#6F7082;" cx="355.111" cy="77.18" r="2.448"/>
		<path style="fill:#42444F;" d="M441.969,332.399c0,1.577-1.279,2.856-2.856,2.856c-1.577,0-2.856-1.279-2.856-2.856
			c0-1.578,1.279-2.856,2.856-2.856C440.69,329.543,441.969,330.822,441.969,332.399z"/>
		<circle style="fill:#E6EAF0;" cx="124.687" cy="392.05" r="2.244"/>
		<path style="fill:#42444F;" d="M36.93,260.537c0,1.24-1.005,2.244-2.244,2.244c-1.24,0-2.244-1.005-2.244-2.244
			c0-1.239,1.005-2.244,2.244-2.244C35.925,258.293,36.93,259.297,36.93,260.537z"/>
		<circle style="fill:#E6EAF0;" cx="66.132" cy="100.089" r="3.264"/>
		<g>
			<path style="fill:none;stroke:#E6EAF0;stroke-width:1.4791;stroke-miterlimit:10;" d="M346.551,405.884
				c0,2.141-1.736,3.876-3.876,3.876c-2.141,0-3.876-1.736-3.876-3.876c0-2.141,1.735-3.876,3.876-3.876
				C344.815,402.007,346.551,403.743,346.551,405.884z"/>
			<path style="fill:none;stroke:#E6EAF0;stroke-width:1.4791;stroke-miterlimit:10;" d="M55.202,333.25
				c0,1.916-1.553,3.469-3.468,3.469s-3.469-1.553-3.469-3.469s1.553-3.468,3.469-3.468S55.202,331.335,55.202,333.25z"/>
			<path style="fill:none;stroke:#E6EAF0;stroke-width:1.4791;stroke-miterlimit:10;" d="M49.036,202.431
				c0,1.352-1.096,2.448-2.448,2.448c-1.352,0-2.448-1.096-2.448-2.448c0-1.352,1.096-2.448,2.448-2.448
				C47.94,199.983,49.036,201.079,49.036,202.431z"/>
		</g>
		<circle style="fill:none;stroke:#E6EAF0;stroke-width:1.4791;stroke-miterlimit:10;" cx="296.173" cy="56.401" r="3.06"/>
		<path style="fill:none;stroke:#42444F;stroke-width:1.4791;stroke-miterlimit:10;" d="M424.087,134.334
			c0,1.465-1.188,2.652-2.652,2.652c-1.465,0-2.652-1.188-2.652-2.652c0-1.465,1.188-2.652,2.652-2.652
			C422.9,131.682,424.087,132.87,424.087,134.334z"/>
		<g id="transform_6_">
			<g>
				<g>
					<g>
						
							<line style="fill:none;stroke:#42444F;stroke-width:1.3394;stroke-linecap:round;stroke-miterlimit:10;" x1="234.898" y1="277.527" x2="234.898" y2="277.527"/>
						
							<line style="fill:none;stroke:#42444F;stroke-width:1.3394;stroke-linecap:round;stroke-miterlimit:10;stroke-dasharray:0,2.6734;" x1="232.225" y1="277.527" x2="158.707" y2="277.527"/>
						
							<line style="fill:none;stroke:#42444F;stroke-width:1.3394;stroke-linecap:round;stroke-miterlimit:10;" x1="157.37" y1="277.527" x2="157.37" y2="277.527"/>
						
							<line style="fill:none;stroke:#42444F;stroke-width:1.3394;stroke-linecap:round;stroke-miterlimit:10;stroke-dasharray:0,2.6496;" x1="157.37" y1="274.877" x2="157.37" y2="183.464"/>
						
							<line style="fill:none;stroke:#42444F;stroke-width:1.3394;stroke-linecap:round;stroke-miterlimit:10;" x1="157.37" y1="182.139" x2="157.37" y2="182.139"/>
						
							<line style="fill:none;stroke:#42444F;stroke-width:1.3394;stroke-linecap:round;stroke-miterlimit:10;stroke-dasharray:0,2.6734;" x1="160.044" y1="182.139" x2="233.561" y2="182.139"/>
						
							<line style="fill:none;stroke:#42444F;stroke-width:1.3394;stroke-linecap:round;stroke-miterlimit:10;" x1="234.898" y1="182.139" x2="234.898" y2="182.139"/>
						
							<line style="fill:none;stroke:#42444F;stroke-width:1.3394;stroke-linecap:round;stroke-miterlimit:10;stroke-dasharray:0,2.6496;" x1="234.898" y1="184.789" x2="234.898" y2="276.202"/>
					</g>
				</g>
				<g>
					<g>
						<rect x="155.171" y="179.941" style="fill:#42444F;" width="4.398" height="4.398"/>
						<rect x="193.935" y="179.941" style="fill:#42444F;" width="4.398" height="4.398"/>
						<rect x="232.699" y="179.941" style="fill:#42444F;" width="4.398" height="4.398"/>
					</g>
					<g>
						<rect x="155.171" y="227.634" style="fill:#42444F;" width="4.398" height="4.398"/>
						<rect x="232.699" y="227.634" style="fill:#42444F;" width="4.398" height="4.398"/>
					</g>
					<g>
						<rect x="155.171" y="275.328" style="fill:#42444F;" width="4.398" height="4.398"/>
						<rect x="193.935" y="275.328" style="fill:#42444F;" width="4.398" height="4.398"/>
						<rect x="232.699" y="275.328" style="fill:#42444F;" width="4.398" height="4.398"/>
					</g>
				</g>
			</g>
		</g>
		<g>
			<path style="fill:#35363B;" d="M222.652,270.733h-18.987c-2.192,0-3.969-1.777-3.969-3.969V259c0-2.192,1.777-3.969,3.969-3.969
				h18.987c2.192,0,3.969,1.777,3.969,3.969v7.764C226.621,268.956,224.844,270.733,222.652,270.733z"/>
			<g id="setting_3_">
				<g>
					<polygon style="fill:#6F7082;" points="214.414,266.709 217.139,263.984 216.594,263.44 213.869,266.164 213.324,266.467 
						212.658,267.496 213.082,267.92 214.111,267.254 					"/>
					<path style="fill:#FFFFFF;" d="M219.591,263.712l2.799-2.799c0.079-0.079,0.135-0.179,0.161-0.288
						c0.09-0.376,0.22-1.241-0.569-2.029c-0.789-0.789-1.654-0.658-2.029-0.569c-0.109,0.026-0.208,0.082-0.288,0.161l-2.799,2.799
						c0.435,0.435,0.435,1.14,0,1.574l-0.242,0.242l-0.424-0.424l-0.454,0.454l1.998,1.998l0.454-0.454l-0.424-0.424l0.242-0.242
						C218.451,263.277,219.156,263.277,219.591,263.712z"/>
				</g>
				<g>
					<path style="fill:#FFFFFF;" d="M207.61,265.398l3.308-3.308c0.199-0.199,0.472-0.301,0.754-0.295
						c0.524,0.01,1.052-0.185,1.452-0.585c0.533-0.533,0.702-1.293,0.506-1.97l-0.983,0.983l-1.085-0.291l-0.291-1.085l0.976-0.976
						c-0.672-0.187-1.422-0.016-1.95,0.512c-0.4,0.4-0.595,0.927-0.585,1.452c0.005,0.281-0.096,0.555-0.295,0.754l-3.307,3.307
						c-0.199,0.199-0.472,0.301-0.754,0.295c-0.524-0.01-1.052,0.185-1.452,0.585c-0.811,0.811-0.779,2.145,0.095,2.915
						c0.763,0.672,1.933,0.654,2.677-0.038c0.441-0.41,0.654-0.969,0.638-1.522C207.307,265.857,207.416,265.592,207.61,265.398z
						 M205.081,267.031l-0.622-0.622l0.228-0.85l0.85-0.228l0.622,0.622l-0.228,0.85L205.081,267.031z"/>
					<path style="fill:#6F7082;" d="M207.689,263.819L207.689,263.819c-0.114-0.114-0.114-0.301,0-0.415l1.061-1.061
						c0.114-0.114,0.301-0.114,0.415,0l0,0c0.114,0.114,0.114,0.301,0,0.415l-1.061,1.061
						C207.99,263.933,207.803,263.933,207.689,263.819z"/>
				</g>
			</g>
		</g>
	</g>
</g>
</svg>
